<?xml version="1.0" encoding="UTF-8" standalone="no"?>
<!-- Created with Inkscape (http://www.inkscape.org/) -->

<svg
   width="33.485664mm"
   height="21.140207mm"
   viewBox="0 0 33.485664 21.140207"
   version="1.1"
   id="svg1"
   xmlns:inkscape="http://www.inkscape.org/namespaces/inkscape"
   xmlns:sodipodi="http://sodipodi.sourceforge.net/DTD/sodipodi-0.dtd"
   xmlns="http://www.w3.org/2000/svg"
   xmlns:svg="http://www.w3.org/2000/svg">
  <sodipodi:namedview
     id="namedview1"
     pagecolor="#ffffff"
     bordercolor="#000000"
     borderopacity="0.25"
     inkscape:showpageshadow="2"
     inkscape:pageopacity="0.0"
     inkscape:pagecheckerboard="0"
     inkscape:deskcolor="#d1d1d1"
     inkscape:document-units="mm" />
  <defs
     id="defs1" />
  <g
     inkscape:label="Livello 1"
     inkscape:groupmode="layer"
     id="layer1"
     transform="translate(-48.947915,-78.845831)">
    <g
       id="g1"
       inkscape:export-filename="g1.png"
       inkscape:export-xdpi="96"
       inkscape:export-ydpi="96">
      <path
         d="M 68.545604,98.586395 60.729813,78.845833 h -2.402417 l -7.323667,19.740562 h -2.055812 v 1.18798 h 6.426729 v -1.18798 h -2.836334 l 1.645709,-4.550833 0.640291,-1.788583 0.07937,-0.219604 0.01588,-0.04233 3.087688,-8.479895 3.299354,8.741833 H 57.531 l -0.478896,1.304396 h 4.746625 l 1.910292,5.03502 h -3.008312 v 1.18798 h 9.898062 v -1.18798 z"
         fill="#212121"
         id="path1"
         style="stroke-width:0.264583" />
      <path
         d="m 74.138843,99.983395 c -1.140354,0 -2.016125,-0.381 -2.624666,-1.145645 -0.608542,-0.764646 -0.912813,-1.754188 -0.912813,-2.973917 0,-1.314979 0.251354,-2.643188 0.754063,-3.987271 0.502708,-1.344083 1.164166,-2.547937 1.98702,-3.611562 0.822855,-1.063625 1.754188,-1.928812 2.799345,-2.595562 1.045104,-0.66675 2.106083,-1.000125 3.190875,-1.000125 0.677333,0 1.222375,0.134937 1.637771,0.404812 0.415396,0.269875 0.73025,0.608542 0.941916,1.016 0.211667,0.404813 0.351896,0.846667 0.420688,1.320271 0.06615,0.473604 0.100542,0.912812 0.100542,1.320271 h -3.278188 v -3.103563 c -0.754062,0.03969 -1.494896,0.338667 -2.219854,0.899584 -0.724958,0.560916 -1.362604,1.275291 -1.912964,2.14577 -0.550333,0.870479 -0.99486,1.846792 -1.333526,2.928937 -0.338667,1.082146 -0.508,2.156355 -0.508,3.21998 0,0.928687 0.150812,1.672166 0.449791,2.233083 0.298979,0.560917 0.854604,0.841375 1.666875,0.841375 0.812324,0 1.688095,-0.381 2.566511,-1.145646 0.881063,-0.764646 1.658938,-1.629833 2.333625,-2.595562 h 0.957792 c -0.4445,0.754062 -0.933979,1.484312 -1.465792,2.19075 -0.531812,0.706437 -1.092729,1.330854 -1.68275,1.870604 -0.59002,0.542396 -1.214437,0.971021 -1.870604,1.291166 -0.658812,0.320146 -1.325615,0.478896 -2.000303,0.478896 z"
         fill="#212121"
         id="path2"
         style="stroke-width:0.264583" />
    </g>
  </g>
</svg>
