<?xml version="1.0" encoding="UTF-8" standalone="no"?>
<!-- Created with Inkscape (http://www.inkscape.org/) -->

<svg
   width="90.483841mm"
   height="15.102135mm"
   viewBox="0 0 90.483841 15.102135"
   version="1.1"
   id="svg1"
   xmlns="http://www.w3.org/2000/svg"
   xmlns:svg="http://www.w3.org/2000/svg">
  <defs
     id="defs1" />
  <g
     id="layer1"
     transform="translate(-60.182413,-40.929518)">
    <mask
       id="mask0_69_5931"
       maskUnits="userSpaceOnUse"
       x="0"
       y="0"
       width="421"
       height="64">
      <path
         d="M 0,7.62939e-6 H 421 V 63.0004 H 0 Z"
         fill="#ffffff"
         id="path3" />
    </mask>
    <g
       id="g1"
       transform="translate(22.83196,-2.9014714)">
      <path
         d="m 74.93112,43.997256 h 1.792288 v 1.595366 h -0.93689 z m -0.728133,7.85091 h 0.774435 V 47.315668 L 74.156156,46.922577 V 46.54073 h 2.521214 v 5.307436 h 0.751152 v 0.474054 h -3.225535 z"
         fill="#212121"
         id="path1"
         style="stroke-width:0.264583" />
      <path
         d="m 126.56244,43.997256 h 1.27185 v 1.272045 h -0.84455 z m -0.9943,2.844332 V 46.54073 h 2.01162 l -1.65338,5.203402 0.821,0.27723 v 0.300858 h -2.02326 l 1.64147,-5.156703 z"
         fill="#212121"
         id="path2"
         style="stroke-width:0.264583" />
      <g
         mask="url(#mask0_69_5931)"
         id="g20"
         transform="matrix(0.26458333,0,0,0.26458333,36.695389,42.47419)">
        <path
           d="m 48.7388,18.6806 c -0.9629,0 -1.7962,0.3061 -2.4977,0.9205 -0.7015,0.6121 -1.2846,1.2421 -1.7537,1.8833 v 11.9611 c 0.411,0.7305 0.9427,1.3226 1.5995,1.7761 0.6591,0.4535 1.3963,0.6791 2.214,0.6791 0.8177,0 1.5259,-0.2479 2.1246,-0.7461 0.5987,-0.496 1.0947,-1.1595 1.4901,-1.9928 0.3932,-0.8333 0.6859,-1.8029 0.8757,-2.9132 0.1899,-1.1104 0.286,-2.2944 0.286,-3.5499 0,-2.453 -0.3731,-4.4034 -1.117,-5.8488 -0.7462,-1.4454 -1.8185,-2.1693 -3.2215,-2.1693 z M 38.0466,18.3299 34.8921,16.8398 v -1.4455 h 8.9831 l -0.7461,4.6893 h 0.3507 c 0.3798,-0.6434 0.84,-1.2779 1.3806,-1.9079 0.5407,-0.6255 1.1551,-1.1885 1.8409,-1.6867 0.6859,-0.4959 1.4521,-0.9048 2.3011,-1.2265 0.8467,-0.3194 1.7359,-0.4803 2.6719,-0.4803 2.3368,0 4.2648,0.9495 5.784,2.8462 1.5191,1.8989 2.2787,4.4122 2.2787,7.5377 0,1.8989 -0.2926,3.6281 -0.878,5.1919 -0.583,1.5616 -1.3873,2.8909 -2.4083,3.9878 -1.0232,1.0947 -2.2296,1.9414 -3.6147,2.5401 -1.3896,0.5988 -2.8707,0.8981 -4.448,0.8981 -0.8176,0 -1.5348,-0.0804 -2.1469,-0.2412 -0.6144,-0.1609 -1.1975,-0.3418 -1.7537,-0.5474 v 8.237 h 4.1196 v 1.7962 H 35.0239 v -1.7962 h 3.0227 z"
           fill="#212121"
           id="path4" />
        <path
           d="m 73.9081,18.6806 c -0.9629,0 -1.7962,0.3061 -2.4977,0.9205 -0.7015,0.6121 -1.2846,1.2421 -1.7537,1.8833 v 11.9611 c 0.411,0.7305 0.9427,1.3226 1.5996,1.7761 0.659,0.4535 1.3962,0.6791 2.2139,0.6791 0.8177,0 1.5259,-0.2479 2.1246,-0.7461 0.5987,-0.496 1.0947,-1.1595 1.4901,-1.9928 0.3932,-0.8333 0.6859,-1.8029 0.8758,-2.9132 0.1899,-1.1104 0.2859,-2.2944 0.2859,-3.5499 0,-2.453 -0.3731,-4.4034 -1.117,-5.8488 -0.7462,-1.4454 -1.8185,-2.1693 -3.2215,-2.1693 z M 63.2159,18.3299 60.0614,16.8398 v -1.4455 h 8.9831 l -0.7461,4.6893 h 0.3507 c 0.3798,-0.6434 0.84,-1.2779 1.3807,-1.9079 0.5406,-0.6255 1.155,-1.1885 1.8408,-1.6867 0.6859,-0.4959 1.4522,-0.9048 2.3011,-1.2265 0.8467,-0.3194 1.7359,-0.4803 2.6719,-0.4803 2.3369,0 4.2648,0.9495 5.784,2.8462 1.5192,1.8989 2.2787,4.4122 2.2787,7.5377 0,1.8989 -0.2926,3.6281 -0.8779,5.1919 -0.5831,1.5616 -1.3874,2.8909 -2.4084,3.9878 -1.0232,1.0947 -2.2295,1.9414 -3.6147,2.5401 -1.3895,0.5988 -2.8707,0.8981 -4.448,0.8981 -0.8176,0 -1.5348,-0.0804 -2.1469,-0.2412 C 70.796,37.3819 70.213,37.201 69.6567,36.9954 v 8.237 h 4.1196 v 1.7962 H 60.1932 v -1.7962 h 3.0227 z"
           fill="#212121"
           id="path5" />
        <path
           d="m 95.2633,34.0166 c 0.9048,0 1.6935,-0.2927 2.3659,-0.8757 0.6725,-0.5854 1.1975,-1.2265 1.5773,-1.928 v -5.4333 l -2.4084,0.9205 c -1.0232,0.3798 -1.9503,0.9405 -2.7836,1.6867 -0.8333,0.7439 -1.2488,1.6577 -1.2488,2.7389 0,0.9048 0.2547,1.613 0.7663,2.1246 0.5116,0.5116 1.0879,0.7663 1.7313,0.7663 z m -2.9355,3.856 c -1.6644,0 -3.0517,-0.4893 -4.162,-1.4678 -1.1104,-0.9785 -1.6667,-2.2854 -1.6667,-3.9208 0,-1.1103 0.257,-2.0665 0.7686,-2.8707 0.5093,-0.8043 1.146,-1.4745 1.9056,-2.0151 0.7596,-0.5407 1.584,-0.9786 2.4753,-1.3159 0.8914,-0.3351 1.7158,-0.6054 2.4754,-0.8087 l 5.0825,-1.4901 v -2.4553 c 0,-1.4879 -0.2771,-2.6429 -0.8311,-3.4605 -0.5563,-0.8177 -1.403,-1.2265 -2.5424,-1.2265 -0.4669,0 -0.8981,0.0447 -1.2913,0.1318 -0.3954,0.0871 -0.7394,0.2323 -1.0299,0.4379 v 5.4332 h -6.6172 c 0.0871,-1.0813 0.4088,-2.1112 0.9651,-3.0897 0.554,-0.9785 1.2913,-1.8319 2.2117,-2.5625 0.9204,-0.7305 2.0084,-1.3158 3.264,-1.7537 1.2555,-0.4379 2.6294,-0.6568 4.1196,-0.6568 2.4239,0 4.381,0.592 5.871,1.7738 1.49,1.1841 2.234,2.9736 2.234,5.3685 v 12.6179 l 2.98,1.3159 v 1.4454 h -8.7192 l 0.6122,-4.3385 h -0.393 c -0.7308,1.3158 -1.7473,2.4619 -3.0453,3.4404 -1.3002,0.9785 -2.8573,1.4678 -4.6669,1.4678 z"
           fill="#212121"
           id="path6" />
        <path
           d="m 110.123,37.3023 v -1.7961 h 2.935 V 8.69078 L 109.772,7.20066 V 5.75523 h 9.727 V 35.5062 h 2.804 v 1.7961 z"
           fill="#212121"
           id="path7" />
        <path
           d="m 140.124,31.2533 c -0.498,1.8699 -1.454,3.4315 -2.87,4.6893 -1.417,1.2555 -3.088,1.8833 -5.016,1.8833 -1.841,0 -3.338,-0.5987 -4.49,-1.7962 -1.155,-1.1974 -1.732,-2.7456 -1.732,-4.6446 V 17.7149 h -3.55 v -2.3234 h 3.724 l 4.777,-6.65972 h 1.49 v 6.65972 h 7.142 v 2.3234 h -7.142 v 12.6627 c 0,1.05 0.219,1.8989 0.657,2.5401 0.438,0.6434 1.095,0.9651 1.97,0.9651 0.731,0 1.381,-0.2569 1.951,-0.7663 0.569,-0.5116 1,-1.1327 1.293,-1.8632 z"
           fill="#212121"
           id="path8" />
        <path
           d="m 214.704,36.4257 c 1.168,0 2.299,-0.5473 3.395,-1.6442 1.095,-1.0947 2.067,-2.4597 2.914,-4.0951 0.846,-1.6353 1.519,-3.3957 2.015,-5.2791 0.496,-1.8855 0.746,-3.6169 0.746,-5.1941 0,-1.2265 -0.197,-2.1894 -0.592,-2.8909 -0.395,-0.7015 -1.088,-1.0522 -2.082,-1.0522 -1.169,0 -2.299,0.5473 -3.396,1.6442 -1.095,1.0947 -2.066,2.4597 -2.913,4.0973 -0.847,1.6353 -1.519,3.3958 -2.015,5.2791 -0.498,1.8833 -0.746,3.6147 -0.746,5.1919 0,1.2265 0.198,2.1916 0.592,2.8909 0.395,0.7015 1.088,1.0522 2.082,1.0522 z m -0.219,1.403 c -2.105,0 -3.689,-0.6211 -4.754,-1.8632 -1.066,-1.2421 -1.6,-2.9288 -1.6,-5.0601 0,-1.9571 0.351,-3.9007 1.052,-5.8287 0.702,-1.928 1.642,-3.6437 2.826,-5.1473 1.182,-1.5035 2.579,-2.7233 4.185,-3.6593 1.606,-0.9339 3.313,-1.4008 5.127,-1.4008 2.102,0 3.686,0.6211 4.752,1.861 1.068,1.2421 1.599,2.9288 1.599,5.0601 0,1.9593 -0.35,3.9007 -1.05,5.8287 -0.701,1.928 -1.644,3.6437 -2.828,5.1472 -1.182,1.5058 -2.578,2.7256 -4.184,3.6594 -1.607,0.9339 -3.316,1.403 -5.125,1.403 z"
           fill="#212121"
           id="path9" />
        <path
           d="m 239.106,37.3022 5.784,-16.2126 c 0.116,-0.3775 0.226,-0.7372 0.328,-1.0723 0.103,-0.3351 0.155,-0.6636 0.155,-0.9853 0,-0.4669 -0.103,-0.8109 -0.309,-1.0299 -0.203,-0.2189 -0.496,-0.3284 -0.875,-0.3284 -0.586,0 -1.256,0.2324 -2.016,0.6993 -0.759,0.4691 -1.541,1.0902 -2.343,1.8632 -0.804,0.7752 -1.609,1.6577 -2.411,2.6518 -0.804,0.9919 -1.541,1.9995 -2.211,3.0227 -1.024,1.5772 -1.879,3.1902 -2.565,4.8412 -0.686,1.651 -1.452,3.7465 -2.299,6.2866 l -0.089,0.2637 h -3.856 l 6.224,-19.5413 -3.025,-1.2265 V 15.395 h 7.625 l -3.55,9.7695 h 0.264 c 0.466,-0.7573 1.152,-1.7291 2.059,-2.9132 0.905,-1.1818 1.928,-2.3212 3.068,-3.4181 1.139,-1.0947 2.35,-2.0442 3.634,-2.8462 1.285,-0.8042 2.543,-1.2064 3.769,-1.2064 0.992,0 1.738,0.2793 2.234,0.8333 0.496,0.5541 0.747,1.3003 0.747,2.2341 0,0.6434 -0.083,1.2488 -0.242,1.8185 -0.161,0.5697 -0.299,1.0456 -0.417,1.4231 l -4.994,14.0656 2.978,1.0076 v 1.1394 z"
           fill="#212121"
           id="path10" />
        <path
           d="m 251.737,15.3958 h 4.338 l 4.294,-5.65221 h 1.359 l -1.841,5.65221 h 6.441 v 1.9279 h -7.053 l -4.821,15.1157 c -0.117,0.3217 -0.219,0.6568 -0.307,1.0075 -0.087,0.3508 -0.131,0.6591 -0.131,0.9205 0,0.2345 0.058,0.4311 0.174,0.592 0.116,0.1608 0.308,0.2413 0.57,0.2413 0.672,0 1.599,-0.4759 2.783,-1.4254 1.182,-0.9472 2.417,-2.3279 3.702,-4.1397 h 1.49 c -1.957,3.1255 -3.74,5.2791 -5.346,6.4631 -1.606,1.1819 -3.083,1.7739 -4.426,1.7739 -0.992,0 -1.709,-0.2547 -2.147,-0.7663 -0.437,-0.5116 -0.656,-1.1907 -0.656,-2.0375 0,-0.4669 0.051,-0.9628 0.154,-1.4901 0.1,-0.525 0.255,-1.079 0.46,-1.6643 l 4.687,-14.5907 h -3.724 z"
           fill="#212121"
           id="path11" />
        <path
           d="m 268.781,37.3023 h -3.856 l 6.222,-19.5413 -3.022,-1.2264 v -1.1394 h 7.535 l -3.898,11.3043 h 0.261 c 0.731,-1.2265 1.535,-2.4753 2.411,-3.7465 0.875,-1.2712 1.802,-2.453 2.781,-3.5499 0.978,-1.0947 2.008,-2.0509 3.09,-2.8685 1.081,-0.8177 2.176,-1.403 3.286,-1.7538 v 5.6097 h -5.257 c -0.907,1.021 -1.812,2.1604 -2.716,3.4159 -0.907,1.2578 -1.754,2.558 -2.543,3.9007 -0.788,1.3426 -1.519,2.7099 -2.191,4.0972 -0.671,1.3874 -1.211,2.7233 -1.62,4.0079 z"
           fill="#212121"
           id="path12" />
        <path
           d="m 285.351,35.2417 c 0.73,0 1.68,-0.5831 2.848,-1.7538 1.169,-1.1661 2.344,-2.6205 3.528,-4.3586 1.182,-1.7381 2.305,-3.6281 3.373,-5.6745 1.066,-2.0442 1.877,-3.9431 2.431,-5.6946 -0.232,-0.3798 -0.554,-0.7015 -0.963,-0.9651 -0.409,-0.2636 -0.92,-0.3932 -1.535,-0.3932 -1.168,0 -2.415,0.5116 -3.744,1.5325 -1.331,1.0232 -2.542,2.3235 -3.637,3.9007 -1.097,1.5772 -2.008,3.3287 -2.739,5.2567 -0.731,1.928 -1.095,3.7823 -1.095,5.5651 0,0.7595 0.11,1.3806 0.329,1.8609 0.219,0.4826 0.621,0.7239 1.204,0.7239 z m -1.928,2.6719 c -1.227,0 -2.154,-0.4379 -2.781,-1.3136 -0.631,-0.8758 -0.943,-1.9861 -0.943,-3.331 0,-2.1894 0.54,-4.3877 1.622,-6.5927 1.079,-2.205 2.424,-4.1844 4.03,-5.9381 1.606,-1.7515 3.367,-3.1836 5.279,-4.2939 1.915,-1.1103 3.704,-1.6644 5.368,-1.6644 0.642,0 1.272,0.0581 1.884,0.1743 0.614,0.1184 1.213,0.2636 1.796,0.4401 h 2.366 l -6.265,19.6731 3.11,1.0947 v 1.1394 h -7.667 l 3.154,-9.115 h -0.261 c -0.411,0.7015 -1.001,1.6085 -1.776,2.7166 -0.773,1.1104 -1.642,2.1782 -2.607,3.1992 -0.963,1.0232 -1.993,1.9124 -3.088,2.6719 -1.097,0.7596 -2.169,1.1394 -3.221,1.1394 z"
           fill="#212121"
           id="path13" />
        <path
           d="m 305.682,15.3958 h 4.338 l 4.294,-5.65221 h 1.358 l -1.841,5.65221 h 6.441 v 1.9279 h -7.053 l -4.821,15.1157 c -0.116,0.3217 -0.219,0.6568 -0.306,1.0075 -0.087,0.3508 -0.132,0.6591 -0.132,0.9205 0,0.2345 0.058,0.4311 0.175,0.592 0.116,0.1608 0.308,0.2413 0.569,0.2413 0.673,0 1.6,-0.4759 2.784,-1.4254 1.182,-0.9472 2.417,-2.3279 3.702,-4.1397 h 1.49 c -1.957,3.1255 -3.74,5.2791 -5.346,6.4631 -1.607,1.1819 -3.083,1.7739 -4.426,1.7739 -0.992,0 -1.709,-0.2547 -2.147,-0.7663 -0.438,-0.5116 -0.657,-1.1907 -0.657,-2.0375 0,-0.4669 0.052,-0.9628 0.155,-1.4901 0.1,-0.525 0.254,-1.079 0.46,-1.6643 l 4.687,-14.5907 h -3.724 z"
           fill="#212121"
           id="path14" />
        <path
           d="m 319.983,15.3958 h 4.339 l 4.294,-5.65221 h 1.358 l -1.841,5.65221 h 6.441 v 1.9279 h -7.053 L 322.7,32.4394 c -0.116,0.3217 -0.219,0.6568 -0.306,1.0075 -0.087,0.3508 -0.132,0.6591 -0.132,0.9205 0,0.2345 0.058,0.4311 0.174,0.592 0.117,0.1608 0.309,0.2413 0.57,0.2413 0.673,0 1.6,-0.4759 2.784,-1.4254 1.181,-0.9472 2.417,-2.3279 3.702,-4.1397 h 1.49 c -1.957,3.1255 -3.74,5.2791 -5.346,6.4631 -1.607,1.1819 -3.083,1.7739 -4.426,1.7739 -0.992,0 -1.709,-0.2547 -2.147,-0.7663 -0.438,-0.5116 -0.657,-1.1907 -0.657,-2.0375 0,-0.4669 0.052,-0.9628 0.154,-1.4901 0.101,-0.525 0.255,-1.079 0.46,-1.6643 l 4.688,-14.5907 h -3.725 z"
           fill="#212121"
           id="path15" />
        <path
           d="M 32.1396,35.5022 20.3103,5.61945 h -3.637 L 5.58787,35.5022 H 2.47583 v 1.7962 H 12.2029 V 35.5022 H 7.90906 l 2.49544,-6.8898 0.9696,-2.7055 0.1184,-0.3329 0.0223,-0.0647 h 0.0023 l 4.6736,-12.8347 4.9954,13.2323 h -5.7192 l -0.7239,1.9705 h 7.187 l 2.8931,7.6248 h -4.5575 v 1.7962 h 14.9861 v -1.7962 z"
           fill="#212121"
           id="path16" />
        <path
           d="m 163.816,34.4888 c 1.434,0 2.837,-0.3217 4.215,-0.9651 1.374,-0.6434 2.78,-1.5817 4.214,-2.8105 L 165.44,21.844 c -2.138,1.231 -3.724,2.5625 -4.763,3.9968 -1.039,1.4342 -1.559,2.8685 -1.559,4.3028 0,1.3158 0.388,2.3703 1.163,3.1589 0.776,0.7909 1.955,1.1863 3.535,1.1863 z m -1.843,3.4248 c -1.993,0 -3.624,-0.5652 -4.897,-1.6912 -1.272,-1.1259 -1.908,-2.5959 -1.908,-4.4122 0,-1.1684 0.254,-2.3101 0.768,-3.4226 0.512,-1.1126 1.198,-2.1514 2.062,-3.1188 0.863,-0.9651 1.859,-1.8431 2.987,-2.6339 1.126,-0.7909 2.304,-1.4477 3.532,-1.9749 -0.556,-0.7306 -1.112,-1.5951 -1.666,-2.5915 -0.557,-0.9942 -0.836,-2.2095 -0.836,-3.6438 0,-1.3158 0.286,-2.5379 0.856,-3.6638 0.572,-1.12822 1.331,-2.10003 2.283,-2.91993 0.952,-0.8199 2.064,-1.45661 3.338,-1.91012 1.273,-0.45351 2.596,-0.68139 3.972,-0.68139 2.341,0 4.084,0.6233 5.225,1.86544 1.142,1.24437 1.785,2.84842 1.93,4.8077 h -5.31 V 6.87362 c -0.263,-0.08713 -0.572,-0.15862 -0.923,-0.21894 -0.35,-0.05808 -0.732,-0.08713 -1.141,-0.08713 -0.936,0 -1.794,0.1832 -2.569,0.54735 -0.776,0.36638 -1.435,0.85788 -1.975,1.47224 -0.543,0.61437 -0.965,1.3248 -1.274,2.12906 -0.306,0.8043 -0.46,1.6465 -0.46,2.5245 0,1.1416 0.226,2.1223 0.682,2.94 0.451,0.8199 0.942,1.5661 1.47,2.2408 l 7.374,9.6578 7.201,-6.9368 h -4.522 v -1.4052 h 7.024 v 1.1416 l -8.867,8.2973 5.223,6.8049 v 1.3181 h -4.258 l -4.126,-5.3572 c -1.788,1.5817 -3.573,2.9713 -5.358,4.171 -1.785,1.1996 -3.731,1.8006 -5.837,1.8006 z"
           fill="#212121"
           id="path17" />
        <path
           d="m 199.798,35.8282 c -0.849,0.2636 -1.637,0.4379 -2.368,0.5272 -0.733,0.0872 -1.434,0.1318 -2.107,0.1318 -2.602,0 -4.582,-0.936 -5.942,-2.8082 -1.361,-1.8721 -2.04,-4.2827 -2.04,-7.2383 0,-0.9428 0.067,-1.89 0.192,-2.844 l -4.604,4.4503 c 0.362,2.6987 1.385,4.906 3.074,6.6195 2.149,2.1782 5.109,3.2662 8.883,3.2662 1.695,0 3.384,-0.2033 5.066,-0.6122 1.68,-0.411 3.253,-1.0232 4.714,-1.843 l 1.93,-7.5891 h -1.315 z"
           fill="#212121"
           id="path18" />
        <path
           d="m 207.452,5.61062 c -1.534,-0.3217 -3.062,-0.48255 -4.584,-0.48255 -2.69,0 -5.257,0.54734 -7.698,1.64426 -2.442,1.09692 -4.576,2.57363 -6.403,4.43017 -1.743,1.7716 -3.144,3.8448 -4.207,6.2129 h 4.667 c 0.664,-1.5817 1.472,-3.045 2.435,-4.3922 1.358,-1.9012 2.974,-3.44936 4.846,-4.64905 1.872,-1.19969 3.905,-1.79842 6.097,-1.79842 0.907,0 1.718,0.04469 2.435,0.13181 0.717,0.08713 1.409,0.23458 2.084,0.43788 l 1.052,8.07168 h 1.316 l 2.017,-8.11413 c -1.17,-0.67245 -2.522,-1.17064 -4.057,-1.49235 z"
           fill="#212121"
           id="path19" />
        <path
           d="m 235.522,59.1749 1.789,-10.7807 h 3.643 c 0.842,0 1.507,0.1509 1.995,0.4527 0.491,0.3018 0.823,0.7106 0.995,1.2265 0.175,0.5159 0.211,1.0932 0.105,1.7319 -0.105,0.6317 -0.331,1.2072 -0.679,1.7266 -0.344,0.5194 -0.81,0.9335 -1.4,1.2423 -0.586,0.3088 -1.297,0.4632 -2.132,0.4632 h -2.611 l 0.19,-1.1581 h 2.568 c 0.576,0 1.057,-0.1 1.443,-0.3 0.386,-0.2 0.688,-0.472 0.905,-0.8159 0.218,-0.3439 0.362,-0.73 0.432,-1.1581 0.07,-0.4352 0.053,-0.8212 -0.053,-1.1581 -0.102,-0.3404 -0.314,-0.6071 -0.637,-0.8001 -0.319,-0.1966 -0.77,-0.2948 -1.353,-0.2948 h -2.295 l -1.6,9.6226 z m 12.477,0.1685 c -0.744,0 -1.367,-0.1772 -1.869,-0.5317 -0.502,-0.3544 -0.856,-0.851 -1.063,-1.4897 -0.204,-0.6387 -0.237,-1.3827 -0.1,-2.232 0.133,-0.8282 0.398,-1.5493 0.794,-2.1635 0.4,-0.6176 0.897,-1.0949 1.49,-1.4318 0.597,-0.3404 1.253,-0.5106 1.969,-0.5106 0.744,0 1.365,0.179 1.863,0.5369 0.502,0.3545 0.857,0.8528 1.064,1.495 0.207,0.6387 0.242,1.3862 0.105,2.2425 -0.133,0.8212 -0.402,1.5388 -0.805,2.153 -0.4,0.6106 -0.897,1.0861 -1.49,1.4265 -0.59,0.3369 -1.242,0.5054 -1.958,0.5054 z m 0.021,-1.116 c 0.568,0 1.061,-0.1456 1.479,-0.4369 0.421,-0.2913 0.761,-0.6756 1.021,-1.1528 0.263,-0.4773 0.441,-0.9932 0.532,-1.5477 0.084,-0.5264 0.08,-1.0159 -0.011,-1.4686 -0.091,-0.4562 -0.286,-0.823 -0.584,-1.1002 -0.298,-0.2808 -0.718,-0.4211 -1.258,-0.4211 -0.569,0 -1.065,0.1474 -1.49,0.4421 -0.421,0.2948 -0.761,0.6826 -1.021,1.1634 -0.26,0.4808 -0.434,0.9984 -0.521,1.5529 -0.084,0.5264 -0.083,1.0159 0.005,1.4687 0.091,0.4492 0.286,0.8124 0.584,1.0896 0.302,0.2737 0.723,0.4106 1.264,0.4106 z m 5.486,0.9475 1.348,-8.0855 h 1.2 l -0.211,1.2212 h 0.085 c 0.21,-0.4 0.531,-0.7246 0.963,-0.9738 0.432,-0.2492 0.89,-0.3738 1.374,-0.3738 0.095,0 0.209,0.0018 0.342,0.0053 0.133,0 0.237,0.0053 0.311,0.0158 l -0.211,1.2634 c -0.042,-0.0106 -0.137,-0.0264 -0.284,-0.0474 -0.148,-0.0246 -0.306,-0.0369 -0.474,-0.0369 -0.393,0 -0.756,0.0825 -1.09,0.2474 -0.333,0.1615 -0.612,0.3861 -0.837,0.6738 -0.224,0.2843 -0.368,0.6089 -0.431,0.9739 l -0.843,5.1166 z m 10.915,-8.0855 -0.168,1.0528 h -4.191 l 0.169,-1.0528 z m -2.653,-1.9372 h 1.242 l -1.284,7.7066 c -0.056,0.3509 -0.047,0.6141 0.026,0.7896 0.077,0.1719 0.193,0.2877 0.348,0.3474 0.158,0.0561 0.328,0.0842 0.51,0.0842 0.137,0 0.249,-0.007 0.337,-0.021 0.088,-0.0176 0.158,-0.0316 0.211,-0.0422 l 0.084,1.116 c -0.095,0.0316 -0.223,0.0632 -0.384,0.0948 -0.158,0.0351 -0.353,0.0526 -0.585,0.0526 -0.351,0 -0.68,-0.0754 -0.989,-0.2263 -0.309,-0.1509 -0.546,-0.3808 -0.711,-0.6896 -0.165,-0.3089 -0.209,-0.6984 -0.132,-1.1686 z m 5.533,10.2122 c -0.513,0 -0.962,-0.0965 -1.348,-0.2895 -0.386,-0.1965 -0.672,-0.479 -0.858,-0.8475 -0.186,-0.372 -0.237,-0.8212 -0.153,-1.3476 0.081,-0.4632 0.237,-0.8387 0.469,-1.1265 0.231,-0.2913 0.512,-0.5194 0.842,-0.6843 0.333,-0.1685 0.691,-0.293 1.074,-0.3738 0.386,-0.0842 0.77,-0.1491 1.153,-0.1947 0.498,-0.0632 0.903,-0.1123 1.216,-0.1474 0.312,-0.0351 0.547,-0.093 0.705,-0.1737 0.158,-0.0808 0.254,-0.2194 0.29,-0.4159 v -0.0421 c 0.084,-0.5159 0.015,-0.9177 -0.206,-1.2055 -0.221,-0.2912 -0.616,-0.4369 -1.184,-0.4369 -0.59,0 -1.083,0.1299 -1.479,0.3896 -0.397,0.2596 -0.69,0.5369 -0.879,0.8317 l -1.095,-0.4212 c 0.287,-0.4913 0.631,-0.8738 1.031,-1.1475 0.4,-0.2773 0.82,-0.4703 1.259,-0.5791 0.438,-0.1123 0.861,-0.1684 1.268,-0.1684 0.26,0 0.553,0.0316 0.879,0.0947 0.327,0.0597 0.632,0.1843 0.916,0.3738 0.288,0.1895 0.504,0.4755 0.648,0.858 0.147,0.3826 0.168,0.8949 0.063,1.5371 l -0.885,5.3272 h -1.242 l 0.19,-1.0949 h -0.064 c -0.112,0.1755 -0.284,0.3632 -0.515,0.5633 -0.229,0.2 -0.518,0.3702 -0.869,0.5106 -0.347,0.1403 -0.756,0.2105 -1.226,0.2105 z m 0.357,-1.1159 c 0.492,0 0.922,-0.0965 1.29,-0.2896 0.372,-0.193 0.67,-0.4421 0.895,-0.7475 0.228,-0.3053 0.37,-0.6264 0.426,-0.9633 l 0.19,-1.137 c -0.063,0.0632 -0.188,0.1211 -0.374,0.1737 -0.186,0.0491 -0.396,0.093 -0.631,0.1316 -0.232,0.0351 -0.458,0.0667 -0.68,0.0948 -0.217,0.0245 -0.393,0.0456 -0.526,0.0631 -0.33,0.0421 -0.644,0.1106 -0.942,0.2053 -0.295,0.0913 -0.544,0.2299 -0.748,0.4159 -0.2,0.1825 -0.324,0.4316 -0.373,0.7475 -0.074,0.4316 0.029,0.758 0.31,0.9791 0.281,0.2176 0.669,0.3264 1.163,0.3264 z m 8.669,-9.8543 -1.79,10.7807 h -1.242 l 1.79,-10.7807 z m 3.855,10.9492 c -0.776,0 -1.416,-0.172 -1.922,-0.5159 -0.505,-0.3474 -0.858,-0.8317 -1.058,-1.4529 -0.2,-0.6246 -0.231,-1.3511 -0.095,-2.1793 0.137,-0.8282 0.409,-1.5581 0.816,-2.1898 0.407,-0.6352 0.915,-1.13 1.522,-1.4845 0.607,-0.3579 1.274,-0.5369 2,-0.5369 0.421,0 0.826,0.0702 1.216,0.2106 0.39,0.1403 0.726,0.3684 1.011,0.6843 0.284,0.3123 0.482,0.7264 0.594,1.2423 0.113,0.5159 0.106,1.1511 -0.021,1.9056 l -0.084,0.5264 h -6.232 l 0.168,-1.0739 h 4.969 c 0.081,-0.4562 0.06,-0.8633 -0.063,-1.2212 -0.119,-0.358 -0.328,-0.6405 -0.626,-0.8476 -0.295,-0.207 -0.669,-0.3105 -1.122,-0.3105 -0.466,0 -0.901,0.1263 -1.305,0.379 -0.404,0.2491 -0.74,0.565 -1.011,0.9475 -0.27,0.379 -0.438,0.765 -0.505,1.1581 l -0.147,0.9265 c -0.106,0.6702 -0.09,1.2037 0.047,1.6002 0.14,0.3966 0.384,0.6826 0.732,0.8581 0.347,0.1719 0.782,0.2579 1.305,0.2579 0.333,0 0.641,-0.0456 0.921,-0.1369 0.281,-0.0947 0.532,-0.2351 0.753,-0.4211 0.221,-0.1895 0.407,-0.4246 0.558,-0.7054 l 1.137,0.3369 c -0.193,0.4071 -0.465,0.7651 -0.816,1.0739 -0.347,0.3053 -0.754,0.5439 -1.221,0.7159 -0.463,0.1685 -0.97,0.2527 -1.521,0.2527 z m 10.067,-0.1685 h -1.369 l 5.749,-10.7807 h 1.347 l 2.169,10.7807 h -1.369 l -1.705,-9.0752 h -0.084 z m 1.2,-4.2112 h 5.517 l -0.19,1.1581 h -5.516 z m 7.702,7.2433 1.863,-11.1176 h 1.2 l -0.21,1.2844 h 0.147 c 0.112,-0.1404 0.267,-0.3194 0.463,-0.5369 0.2,-0.2211 0.469,-0.4176 0.806,-0.5896 0.34,-0.1755 0.773,-0.2632 1.3,-0.2632 0.681,0 1.251,0.1702 1.711,0.5106 0.459,0.3404 0.784,0.823 0.974,1.4476 0.189,0.6247 0.214,1.3616 0.073,2.2109 -0.14,0.8563 -0.409,1.5985 -0.805,2.2267 -0.397,0.6247 -0.881,1.1089 -1.453,1.4529 -0.572,0.3404 -1.195,0.5106 -1.869,0.5106 -0.519,0 -0.921,-0.086 -1.205,-0.258 -0.284,-0.1754 -0.492,-0.3737 -0.621,-0.5948 -0.13,-0.2246 -0.23,-0.4106 -0.3,-0.558 h -0.106 l -0.716,4.2744 z m 2.41,-7.0748 c -0.098,0.6106 -0.098,1.1493 0,1.616 0.102,0.4632 0.304,0.8265 0.606,1.0897 0.305,0.2597 0.707,0.3895 1.205,0.3895 0.52,0 0.974,-0.1369 1.364,-0.4106 0.393,-0.2772 0.716,-0.6492 0.968,-1.116 0.256,-0.4702 0.434,-0.9931 0.532,-1.5686 0.091,-0.5686 0.088,-1.0809 -0.011,-1.5371 -0.098,-0.4598 -0.298,-0.823 -0.6,-1.0897 -0.302,-0.2702 -0.716,-0.4053 -1.242,-0.4053 -0.505,0 -0.953,0.1281 -1.342,0.3842 -0.386,0.2527 -0.706,0.6072 -0.958,1.0634 -0.25,0.4527 -0.423,0.9808 -0.522,1.5845 z m 6.637,7.0748 1.864,-11.1176 h 1.2 l -0.211,1.2844 h 0.148 c 0.112,-0.1404 0.266,-0.3194 0.463,-0.5369 0.2,-0.2211 0.468,-0.4176 0.805,-0.5896 0.341,-0.1755 0.774,-0.2632 1.3,-0.2632 0.681,0 1.252,0.1702 1.711,0.5106 0.46,0.3404 0.785,0.823 0.974,1.4476 0.19,0.6247 0.214,1.3616 0.074,2.2109 -0.141,0.8563 -0.409,1.5985 -0.806,2.2267 -0.396,0.6247 -0.88,1.1089 -1.452,1.4529 -0.573,0.3404 -1.195,0.5106 -1.869,0.5106 -0.52,0 -0.921,-0.086 -1.206,-0.258 -0.284,-0.1754 -0.491,-0.3737 -0.621,-0.5948 -0.13,-0.2246 -0.23,-0.4106 -0.3,-0.558 h -0.105 l -0.716,4.2744 z m 2.411,-7.0748 c -0.098,0.6106 -0.098,1.1493 0,1.616 0.102,0.4632 0.304,0.8265 0.605,1.0897 0.306,0.2597 0.708,0.3895 1.206,0.3895 0.519,0 0.974,-0.1369 1.363,-0.4106 0.393,-0.2772 0.716,-0.6492 0.969,-1.116 0.256,-0.4702 0.433,-0.9931 0.531,-1.5686 0.092,-0.5686 0.088,-1.0809 -0.01,-1.5371 -0.098,-0.4598 -0.298,-0.823 -0.6,-1.0897 -0.302,-0.2702 -0.716,-0.4053 -1.242,-0.4053 -0.506,0 -0.953,0.1281 -1.343,0.3842 -0.386,0.2527 -0.705,0.6072 -0.958,1.0634 -0.249,0.4527 -0.423,0.9808 -0.521,1.5845 z m 9.5,4.2322 c -0.512,0 -0.961,-0.0965 -1.347,-0.2895 -0.386,-0.1965 -0.672,-0.479 -0.858,-0.8475 -0.186,-0.372 -0.237,-0.8212 -0.153,-1.3476 0.081,-0.4632 0.237,-0.8387 0.468,-1.1265 0.232,-0.2913 0.513,-0.5194 0.843,-0.6843 0.333,-0.1685 0.691,-0.293 1.074,-0.3738 0.386,-0.0842 0.77,-0.1491 1.152,-0.1947 0.499,-0.0632 0.904,-0.1123 1.216,-0.1474 0.313,-0.0351 0.548,-0.093 0.706,-0.1737 0.158,-0.0808 0.254,-0.2194 0.289,-0.4159 v -0.0421 c 0.085,-0.5159 0.016,-0.9177 -0.205,-1.2055 -0.221,-0.2912 -0.616,-0.4369 -1.184,-0.4369 -0.59,0 -1.083,0.1299 -1.48,0.3896 -0.396,0.2596 -0.689,0.5369 -0.879,0.8317 l -1.095,-0.4212 c 0.288,-0.4913 0.632,-0.8738 1.032,-1.1475 0.4,-0.2773 0.82,-0.4703 1.258,-0.5791 0.439,-0.1123 0.862,-0.1684 1.269,-0.1684 0.26,0 0.553,0.0316 0.879,0.0947 0.326,0.0597 0.632,0.1843 0.916,0.3738 0.288,0.1895 0.504,0.4755 0.647,0.858 0.148,0.3826 0.169,0.8949 0.064,1.5371 l -0.885,5.3272 h -1.242 l 0.189,-1.0949 h -0.063 c -0.112,0.1755 -0.284,0.3632 -0.516,0.5633 -0.228,0.2 -0.517,0.3702 -0.868,0.5106 -0.348,0.1403 -0.756,0.2105 -1.227,0.2105 z m 0.358,-1.1159 c 0.492,0 0.921,-0.0965 1.29,-0.2896 0.372,-0.193 0.67,-0.4421 0.895,-0.7475 0.228,-0.3053 0.37,-0.6264 0.426,-0.9633 l 0.19,-1.137 c -0.063,0.0632 -0.188,0.1211 -0.374,0.1737 -0.186,0.0491 -0.397,0.093 -0.632,0.1316 -0.231,0.0351 -0.458,0.0667 -0.679,0.0948 -0.217,0.0245 -0.393,0.0456 -0.526,0.0631 -0.33,0.0421 -0.644,0.1106 -0.942,0.2053 -0.295,0.0913 -0.544,0.2299 -0.748,0.4159 -0.2,0.1825 -0.325,0.4316 -0.374,0.7475 -0.073,0.4316 0.03,0.758 0.311,0.9791 0.281,0.2176 0.668,0.3264 1.163,0.3264 z m 8.669,-9.8543 -1.79,10.7807 h -1.242 l 1.789,-10.7807 z m 5.349,2.6952 -0.168,1.0528 h -4.19 l 0.168,-1.0528 z m -2.653,-1.9372 h 1.243 l -1.285,7.7066 c -0.056,0.3509 -0.047,0.6141 0.026,0.7896 0.078,0.1719 0.193,0.2877 0.348,0.3474 0.158,0.0561 0.328,0.0842 0.511,0.0842 0.136,0 0.249,-0.007 0.336,-0.021 0.088,-0.0176 0.158,-0.0316 0.211,-0.0422 l 0.084,1.116 c -0.095,0.0316 -0.223,0.0632 -0.384,0.0948 -0.158,0.0351 -0.353,0.0526 -0.584,0.0526 -0.351,0 -0.681,-0.0754 -0.99,-0.2263 -0.309,-0.1509 -0.546,-0.3808 -0.711,-0.6896 -0.165,-0.3089 -0.208,-0.6984 -0.131,-1.1686 z m 3.174,10.0227 1.348,-8.0855 h 1.242 l -1.347,8.0855 z m 2.348,-9.4542 c -0.242,0 -0.451,-0.0824 -0.626,-0.2474 -0.172,-0.1649 -0.258,-0.3632 -0.258,-0.5948 0,-0.2316 0.086,-0.4299 0.258,-0.5949 0.175,-0.1649 0.384,-0.2474 0.626,-0.2474 0.242,0 0.449,0.0825 0.621,0.2474 0.176,0.165 0.264,0.3633 0.264,0.5949 0,0.2316 -0.088,0.4299 -0.264,0.5948 -0.172,0.165 -0.379,0.2474 -0.621,0.2474 z"
           fill="#212121"
           id="path20" />
      </g>
    </g>
  </g>
</svg>
