<?xml version="1.0" encoding="UTF-8" standalone="no"?>
<!-- Created with Inkscape (http://www.inkscape.org/) -->

<svg
   width="448"
   height="76"
   viewBox="0 0 118.53333 20.108334"
   version="1.1"
   id="svg8"
   inkscape:version="1.2.1 (9c6d41e410, 2022-07-14)"
   sodipodi:docname="A&amp;C_banner_logo_testo_bianco.svg"
   inkscape:export-filename="/home/paolo/Scaricati/A&amp;C_logo_16x16.png"
   inkscape:export-xdpi="20.210518"
   inkscape:export-ydpi="20.210518"
   xmlns:inkscape="http://www.inkscape.org/namespaces/inkscape"
   xmlns:sodipodi="http://sodipodi.sourceforge.net/DTD/sodipodi-0.dtd"
   xmlns="http://www.w3.org/2000/svg"
   xmlns:svg="http://www.w3.org/2000/svg"
   xmlns:rdf="http://www.w3.org/1999/02/22-rdf-syntax-ns#"
   xmlns:cc="http://creativecommons.org/ns#"
   xmlns:dc="http://purl.org/dc/elements/1.1/">
  <defs
     id="defs2" />
  <sodipodi:namedview
     id="base"
     pagecolor="#ffffff"
     bordercolor="#666666"
     borderopacity="1.0"
     inkscape:pageopacity="0.0"
     inkscape:pageshadow="2"
     inkscape:zoom="1.979899"
     inkscape:cx="174.75639"
     inkscape:cy="45.456864"
     inkscape:document-units="px"
     inkscape:current-layer="layer1"
     showgrid="false"
     units="px"
     inkscape:window-width="1864"
     inkscape:window-height="931"
     inkscape:window-x="-8"
     inkscape:window-y="-8"
     inkscape:window-maximized="1"
     inkscape:snap-text-baseline="false"
     inkscape:showpageshadow="2"
     inkscape:pagecheckerboard="0"
     inkscape:deskcolor="#d1d1d1" />
  <metadata
     id="metadata5">
    <rdf:RDF>
      <cc:Work
         rdf:about="">
        <dc:format>image/svg+xml</dc:format>
        <dc:type
           rdf:resource="http://purl.org/dc/dcmitype/StillImage" />
        <dc:title />
      </cc:Work>
    </rdf:RDF>
  </metadata>
  <g
     inkscape:label="A&amp;C"
     inkscape:groupmode="layer"
     id="layer1"
     transform="translate(0,-276.89165)"
     style="display:inline">
    <flowRoot
       xml:space="preserve"
       id="flowRoot10"
       style="font-style:normal;font-weight:normal;font-size:40px;line-height:1.25;font-family:sans-serif;letter-spacing:0px;word-spacing:0px;fill:#000000;fill-opacity:1;stroke:none"
       transform="scale(0.26458333)"><flowRegion
         id="flowRegion12"><rect
           id="rect14"
           width="562.85712"
           height="460"
           x="134.28572"
           y="336.80539" /></flowRegion><flowPara
         id="flowPara16" /></flowRoot>
    <g
       aria-label="A"
       transform="matrix(0.26458333,0,0,0.26458333,-30.066999,215.70293)"
       style="font-style:normal;font-variant:normal;font-weight:bold;font-stretch:normal;font-size:42.6667px;line-height:1.25;font-family:'PT Serif';-inkscape-font-specification:'PT Serif, Bold';font-variant-ligatures:normal;font-variant-caps:normal;font-variant-numeric:normal;font-feature-settings:normal;text-align:start;letter-spacing:0px;word-spacing:0px;writing-mode:lr-tb;text-anchor:start;fill:#ffffff;fill-opacity:1;stroke:none"
       id="flowRoot18">
      <path
         id="path855"
         d="m 136.25351,283.90495 h -10.53867 v -1.62133 q 0.68267,-0.42667 1.45067,-0.72533 0.81067,-0.34134 1.57867,-0.512 l 11.008,-27.52 h 3.15733 l 10.70933,27.52 q 0.85334,0.17066 1.70667,0.512 0.85333,0.29866 1.49333,0.72533 v 1.62133 h -13.35466 v -1.62133 q 0.81066,-0.384 1.74933,-0.72533 0.93867,-0.34134 1.792,-0.512 l -2.47467,-6.784 h -9.472 l -2.51733,6.784 q 1.96267,0.256 3.712,1.23733 z m -0.17067,-12.416 h 7.552 l -2.77333,-8.14933 -0.81067,-3.66933 h -0.0853 l -0.93867,3.75466 z"
         inkscape:connector-curvature="0"
         style="fill:#ffffff;fill-opacity:1" />
    </g>
    <path
       inkscape:connector-curvature="0"
       d="m 10.568513,276.90177 c -5.5523232,0 -10.05519909,4.50384 -10.05519909,10.05622 0,5.55239 4.50287589,10.05212 10.05519909,10.05212 5.552322,0 10.053135,-4.49973 10.053135,-10.05212 0,-5.55238 -4.500813,-10.05622 -10.053135,-10.05622 z m 0,18.85339 c -4.8509033,0 -8.7989185,-3.94657 -8.7989185,-8.79717 0,-4.8506 3.9480152,-8.79712 8.7989185,-8.79712 4.849251,0 8.796852,3.94652 8.796852,8.79712 0,4.8506 -3.947601,8.79717 -8.796852,8.79717"
       style="fill:#e3914b;fill-opacity:1;fill-rule:nonzero;stroke:none;stroke-width:0.41283"
       id="path4998" />
    <g
       aria-label="C"
       transform="matrix(0.26458334,0,0,0.26458334,-21.912571,215.70483)"
       style="font-style:normal;font-variant:normal;font-weight:bold;font-stretch:normal;font-size:42.6667px;line-height:1.25;font-family:'PT Serif';-inkscape-font-specification:'PT Serif, Bold';font-variant-ligatures:normal;font-variant-caps:normal;font-variant-numeric:normal;font-feature-settings:normal;text-align:start;letter-spacing:0px;word-spacing:0px;writing-mode:lr-tb;text-anchor:start;display:inline;fill:#ffffff;fill-opacity:1;stroke:none"
       id="flowRoot18-7">
      <path
         id="path859"
         d="m 148.75484,274.94495 h 1.74934 q 0.17066,0.68267 0.29866,1.664 0.17067,0.93867 0.256,2.048 0.128,1.06667 0.17067,2.13333 0.0427,1.06667 0.0427,1.92 -1.49334,0.93867 -3.75467,1.32267 -2.21867,0.384 -4.56533,0.384 -3.54134,0 -6.44267,-0.85333 -2.85867,-0.896 -4.90667,-2.77334 -2.00533,-1.92 -3.11466,-4.82133 -1.10934,-2.944 -1.10934,-7.04 0,-4.05333 1.19467,-6.95466 1.23733,-2.944 3.28533,-4.82134 2.048,-1.87733 4.736,-2.73066 2.73067,-0.896 5.71734,-0.896 2.816,0 5.07733,0.42666 2.304,0.384 3.75467,1.06667 0,0.68267 -0.0853,1.74933 -0.0427,1.06667 -0.21333,2.26134 -0.128,1.152 -0.34133,2.304 -0.17067,1.10933 -0.34134,1.87733 h -1.792 l -2.34666,-6.44267 q -0.384,-0.21333 -1.23734,-0.34133 -0.85333,-0.128 -1.74933,-0.128 -1.74933,0 -3.28533,0.72533 -1.536,0.68267 -2.73067,2.21867 -1.19467,1.536 -1.87733,3.968 -0.68267,2.38933 -0.68267,5.76 0,6.10133 2.432,9.38666 2.432,3.28534 6.61333,3.28534 1.19467,0 2.00534,-0.17067 0.85333,-0.21333 1.152,-0.55467 z"
         inkscape:connector-curvature="0"
         style="fill:#ffffff;fill-opacity:1" />
    </g>
    <g
       aria-label="&amp;"
       transform="matrix(0.26458334,0,0,0.26458334,-24.32518,221.30381)"
       style="font-style:normal;font-variant:normal;font-weight:bold;font-stretch:normal;font-size:22.6667px;line-height:1.25;font-family:'PT Serif';-inkscape-font-specification:'PT Serif, Bold';font-variant-ligatures:normal;font-variant-caps:normal;font-variant-numeric:normal;font-feature-settings:normal;text-align:start;letter-spacing:0px;word-spacing:0px;writing-mode:lr-tb;text-anchor:start;display:inline;fill:#0293b8;fill-opacity:1;stroke:none"
       id="flowRoot18-2-2">
      <path
         id="path863"
         d="m 137.70551,263.21562 q -0.72533,-0.612 -1.47333,-1.40533 -0.748,-0.79334 -1.428,-1.60934 -0.65734,-0.816 -1.20134,-1.58666 -0.544,-0.77067 -0.86133,-1.31467 -0.65733,0.816 -0.952,1.564 -0.29467,0.72533 -0.29467,1.72267 0,0.83866 0.272,1.54133 0.272,0.70267 0.748,1.224 0.49867,0.49867 1.156,0.79333 0.65734,0.272 1.428,0.272 0.68,0 1.38267,-0.272 0.72533,-0.29466 1.224,-0.92933 z m -4.64667,-10.56267 q 0,0.34 0.136,0.748 0.136,0.408 0.34,0.816 0.22667,0.408 0.476,0.79334 0.272,0.38533 0.52134,0.68 0.77066,-0.58934 1.13333,-1.428 0.36267,-0.83867 0.31733,-1.79067 -0.0453,-0.63467 -0.408,-1.06533 -0.34,-0.45334 -1.06533,-0.45334 -0.748,0 -1.11067,0.52134 -0.34,0.52133 -0.34,1.17866 z m 7.97867,13.192 q -0.45333,-0.272 -1.06533,-0.63466 -0.612,-0.38534 -1.20134,-0.97467 -0.70266,0.72533 -1.972,1.31467 -1.26933,0.56666 -2.90133,0.56666 -1.51867,0 -2.62933,-0.408 -1.088,-0.43066 -1.79067,-1.088 -0.70267,-0.68 -1.04267,-1.51866 -0.34,-0.83867 -0.34,-1.7 0,-1.04267 0.38534,-1.904 0.408,-0.884 0.97466,-1.564 0.56667,-0.68 1.20134,-1.156 0.65733,-0.49867 1.13333,-0.77067 -0.56667,-0.612 -0.97467,-1.47333 -0.408,-0.86134 -0.408,-1.7 0,-0.56667 0.22667,-1.13334 0.24933,-0.56666 0.72533,-0.99733 0.49867,-0.45333 1.20134,-0.72533 0.72533,-0.272 1.67733,-0.272 1.632,0 2.652,0.72533 1.02,0.72533 1.02,2.08533 0,0.65734 -0.22667,1.24667 -0.22666,0.58933 -0.612,1.11067 -0.36266,0.52133 -0.86133,0.99733 -0.476,0.45333 -1.02,0.83867 1.564,2.15333 4.284,4.57866 0.18133,-0.24933 0.408,-0.83866 0.22667,-0.58934 0.38533,-1.33734 0.15867,-0.748 0.204,-1.58666 0.0453,-0.83867 -0.136,-1.58667 -0.36266,-0.068 -0.63466,-0.204 -0.272,-0.136 -0.56667,-0.34 v -0.884 h 5.168 v 0.884 q -0.612,0.38533 -1.496,0.544 -0.11333,0.97467 -0.34,1.92667 -0.22667,0.952 -0.544,1.79066 -0.29467,0.83867 -0.63467,1.496 -0.34,0.65734 -0.68,1.02 0.79334,0.70267 1.60934,1.24667 0.816,0.544 1.60933,0.99733 l 1.156,0.544 v 0.884 z"
         inkscape:connector-curvature="0"
         style="fill:#0293b8;fill-opacity:1" />
    </g>
    <g
       aria-label="A"
       transform="matrix(0.3175,0,0,0.3175,-13.338332,196.09052)"
       style="font-style:normal;font-variant:normal;font-weight:bold;font-stretch:normal;font-size:42.66666794px;line-height:1.25;font-family:'PT Serif';-inkscape-font-specification:'PT Serif, Bold';font-variant-ligatures:normal;font-variant-caps:normal;font-variant-numeric:normal;font-feature-settings:normal;text-align:start;letter-spacing:0px;word-spacing:0px;writing-mode:lr-tb;text-anchor:start;display:inline;fill:#16475c;fill-opacity:1;stroke:none"
       id="flowRoot18-77">
      <text
         xml:space="preserve"
         style="font-style:normal;font-variant:normal;font-weight:bold;font-stretch:normal;font-size:29.3333px;line-height:1.25;font-family:'PT Serif';-inkscape-font-specification:'PT Serif, Bold';font-variant-ligatures:normal;font-variant-caps:normal;font-variant-numeric:normal;font-feature-settings:normal;text-align:center;letter-spacing:0px;word-spacing:0px;writing-mode:lr-tb;text-anchor:middle;fill:#16475c;fill-opacity:1;stroke:none"
         x="243.0"
         y="282.71561"
         id="text3854"><tspan
           sodipodi:role="line"
           id="tspan3852"
           x="243.0"
           y="282.71561"
           style="font-style:normal;font-variant:normal;font-weight:bold;font-stretch:normal;font-size:29.3333px;font-family:'PT Serif';-inkscape-font-specification:'PT Serif, Bold';font-variant-ligatures:normal;font-variant-caps:normal;font-variant-numeric:normal;font-feature-settings:normal;text-align:center;writing-mode:lr-tb;text-anchor:middle;fill:#16475c;fill-opacity:1"><tspan
             style="fill:#ffffff;fill-opacity:1"
             id="tspan983">Appalti</tspan><tspan
             style="font-style:normal;font-variant:normal;font-weight:bold;font-stretch:normal;font-size:29.3333px;font-family:'PT Serif';-inkscape-font-specification:'PT Serif, Bold';font-variant-ligatures:normal;font-variant-caps:normal;font-variant-numeric:normal;font-feature-settings:normal;text-align:center;writing-mode:lr-tb;text-anchor:middle;fill:#0293b8;fill-opacity:1"
             id="tspan4663">&amp;</tspan><tspan
             id="tspan999"
             style="fill:#ffffff;fill-opacity:1">Contratti</tspan></tspan></text>
      <text
         xml:space="preserve"
         style="font-style:italic;font-variant:normal;font-weight:bold;font-stretch:normal;font-size:18.6667px;line-height:1.25;font-family:'PT Serif';-inkscape-font-specification:'PT Serif, Bold Italic';font-variant-ligatures:normal;font-variant-caps:normal;font-variant-numeric:normal;font-feature-settings:normal;text-align:start;letter-spacing:0px;word-spacing:0px;writing-mode:lr-tb;text-anchor:start;fill:#c9f0fc;fill-opacity:1;stroke:none"
         x="125.1954"
         y="308.78705"
         id="text4675"><tspan
           sodipodi:role="line"
           id="tspan4673"
           x="125.1954"
           y="308.78705"
           style="font-style:italic;font-variant:normal;font-weight:bold;font-stretch:normal;font-size:18.6667px;font-family:'PT Serif';-inkscape-font-specification:'PT Serif, Bold Italic';font-variant-ligatures:normal;font-variant-caps:normal;font-variant-numeric:normal;font-feature-settings:normal;text-align:start;writing-mode:lr-tb;text-anchor:start;fill:#c9f0fc;fill-opacity:1">e-Procurement Portale Appalti</tspan></text>
    </g>
  </g>
</svg>
