<?xml version="1.0"?>
<svg width="462.737" height="359.147" xmlns="http://www.w3.org/2000/svg" xmlns:svg="http://www.w3.org/2000/svg" enable-background="new 0 0 462.737 359.147" version="1.1" xml:space="preserve">
 <g class="layer">
  <title>Layer 1</title>
  <polygon fill="#FFFFFF" id="svg_1" points="174.24200439453125,261.80499267578125 174.24200439453125,288.9129943847656 171.49200439453125,288.9129943847656 171.49200439453125,267.22698974609375 160.84300231933594,285.4670104980469 159.48699951171875,285.4670104980469 148.83700561523438,267.3420104980469 148.83700561523438,288.9129943847656 146.08799743652344,288.9129943847656 146.08799743652344,261.80499267578125 148.4499969482422,261.80499267578125 160.22300720214844,281.90301513671875 171.8800048828125,261.80499267578125 "/>
  <path d="m200.84,281.67l-15.1,0l-3.26,7.24l-2.98,0l12.4,-27.1l2.82,0l12.39,27.1l-3.02,0l-3.25,-7.24zm-1.05,-2.32l-6.5,-14.56l-6.51,14.56l13.01,0z" fill="#FFFFFF" id="svg_2"/>
  <path d="m230.89,288.91l-6.2,-8.71c-0.7,0.08 -1.39,0.11 -2.17,0.11l-7.28,0l0,8.6l-2.86,0l0,-27.1l10.14,0c6.9,0 11.08,3.48 11.08,9.29c0,4.26 -2.25,7.24 -6.2,8.52l6.62,9.29l-3.13,0zm-0.16,-17.81c0,-4.34 -2.86,-6.82 -8.29,-6.82l-7.2,0l0,13.6l7.2,0c5.43,0 8.29,-2.52 8.29,-6.78" fill="#FFFFFF" id="svg_3"/>
  <path d="m238.74,275.36c0,-7.94 6.05,-13.79 14.22,-13.79c3.95,0 7.51,1.32 9.91,3.95l-1.82,1.82c-2.21,-2.24 -4.92,-3.21 -8.02,-3.21c-6.54,0 -11.46,4.8 -11.46,11.23c0,6.43 4.92,11.23 11.46,11.23c3.1,0 5.81,-0.97 8.02,-3.25l1.82,1.82c-2.4,2.63 -5.96,3.99 -9.95,3.99c-8.13,0 -14.18,-5.85 -14.18,-13.79" fill="#FFFFFF" id="svg_4"/>
  <polygon fill="#FFFFFF" id="svg_5" points="292.4150085449219,261.80499267578125 292.4150085449219,288.9129943847656 289.5880126953125,288.9129943847656 289.5880126953125,276.4049987792969 272.6260070800781,276.4049987792969 272.6260070800781,288.9129943847656 269.760009765625,288.9129943847656 269.760009765625,261.80499267578125 272.6260070800781,261.80499267578125 272.6260070800781,273.8869934082031 289.5880126953125,273.8869934082031 289.5880126953125,261.80499267578125 "/>
  <polygon fill="#FFFFFF" id="svg_6" points="321.1830139160156,286.4339904785156 321.1830139160156,288.9150085449219 302.0140075683594,288.9150085449219 302.0140075683594,261.80499267578125 320.60198974609375,261.80499267578125 320.60198974609375,264.28399658203125 304.8789978027344,264.28399658203125 304.8789978027344,273.9259948730469 318.8970031738281,273.9259948730469 318.8970031738281,276.3659973144531 304.8789978027344,276.3659973144531 304.8789978027344,286.4339904785156 "/>
  <rect fill="#FFFFFF" height="2.44" id="svg_7" width="130.98" x="3.73" y="273.92"/>
  <rect fill="#FFFFFF" height="2.44" id="svg_8" width="130.98" x="329.89" y="273.92"/>
  <polygon fill="#FFFFFF" id="svg_9" points="411.438,47.546 363.892,47.546 363.892,0 329.682,0 329.682,47.546 282.139,47.546 282.139,81.756   329.682,81.756 329.682,129.299 363.892,129.299 363.892,81.756 411.438,81.756 "/>
  <path d="m395.27,227.8c-36.16,0 -65.59,-29.43 -65.59,-65.59l0,-21.51l34.21,0l0,21.51c0,17.3 14.08,31.38 31.38,31.38s31.38,-14.08 31.38,-31.38l34.22,0c0,36.16 -29.43,65.59 -65.6,65.59" fill="#FFFFFF" id="svg_22"/>
  <path d="m231.8,115.88c-27.87,-5.35 -31.83,-8.4 -31.83,-16.85c0,-11.46 20.42,-17.27 60.7,-17.27l8.45,0l0,-34.21l-8.45,0c-12.49,0 -33.39,0 -52.02,4.84c-37.32,9.71 -42.89,33.39 -42.89,46.64c0,39.01 35.86,45.89 59.59,50.44c15.21,2.92 38.9,6.66 38.9,23.91c0,11.16 -9.86,20.21 -25.46,20.21c-30.87,0 -50.55,-17.38 -73.34,-37.49c-2.89,-2.55 -5.82,-5.14 -8.82,-7.72c0.42,-3.51 0.64,-7.08 0.64,-10.71c0,-49.69 -40.43,-90.12 -90.13,-90.12c-9.54,0 -18.97,1.54 -27.96,4.47l0,37.23c8.46,-4.9 18.12,-7.49 27.96,-7.49c25.93,0 47.79,17.74 54.09,41.72c-12.77,-6.45 -27.15,-10.7 -43.94,-10.7c-43.77,0 -76.27,23.97 -77.27,56.99c-0.41,13.71 4.93,27 15.05,37.43c12.7,13.09 31.68,20.6 52.07,20.6c33,0 61.9,-17.83 77.61,-44.35c23.98,21.15 51.38,44.35 94.04,44.35c16.65,0 31.93,-5.7 43.02,-16.05c10.47,-9.78 16.47,-22.92 16.47,-36.05c0,-47.07 -41.61,-55.05 -66.48,-59.82m-164.66,77.71c-11.02,0 -21.31,-3.82 -27.51,-10.21c-2.57,-2.64 -5.58,-6.97 -5.41,-12.58c0.35,-11.54 15.56,-23.82 43.07,-23.82c15.56,0 28.31,5.71 40.55,14.25c-8.91,19.09 -28.28,32.36 -50.7,32.36" fill="#FFFFFF" id="svg_23"/>
 </g>
</svg>