<?xml version="1.0" encoding="UTF-8" standalone="no"?>
<svg
   xmlns:dc="http://purl.org/dc/elements/1.1/"
   xmlns:cc="http://creativecommons.org/ns#"
   xmlns:rdf="http://www.w3.org/1999/02/22-rdf-syntax-ns#"
   xmlns:svg="http://www.w3.org/2000/svg"
   xmlns="http://www.w3.org/2000/svg"
   xmlns:sodipodi="http://sodipodi.sourceforge.net/DTD/sodipodi-0.dtd"
   xmlns:inkscape="http://www.inkscape.org/namespaces/inkscape"
   id="SvgjsSvg1062"
   width="16"
   height="16"
   version="1.1"
   sodipodi:docname="bad.svg"
   inkscape:version="0.92.5 (2060ec1f9f, 2020-04-08)">
  <metadata
     id="metadata12">
    <rdf:RDF>
      <cc:Work
         rdf:about="">
        <dc:format>image/svg+xml</dc:format>
        <dc:type
           rdf:resource="http://purl.org/dc/dcmitype/StillImage" />
        <dc:title></dc:title>
      </cc:Work>
    </rdf:RDF>
  </metadata>
  <sodipodi:namedview
     pagecolor="#ffffff"
     bordercolor="#666666"
     borderopacity="1"
     objecttolerance="10"
     gridtolerance="10"
     guidetolerance="10"
     inkscape:pageopacity="0"
     inkscape:pageshadow="2"
     inkscape:window-width="1864"
     inkscape:window-height="1016"
     id="namedview10"
     showgrid="false"
     inkscape:zoom="37.1875"
     inkscape:cx="8.1819267"
     inkscape:cy="7.8245413"
     inkscape:window-x="56"
     inkscape:window-y="27"
     inkscape:window-maximized="1"
     inkscape:current-layer="SvgjsSvg1062"
     inkscape:document-rotation="0" />
  <defs
     id="SvgjsDefs1063" />
  <g
     id="SvgjsG1064"
     transform="matrix(0.71,0,0,0.71,41.852738,-230.33282)">
    <svg
       width="288"
       height="288"
       viewBox="0 0 8.467 8.467"
       version="1.1"
       id="svg6">
      <path
         d="m 1.9288571,295.06795 c 0.2047877,0.20531 0.3296711,0.48312 0.3307293,0.79216 -0.00106,0.30902 -0.1259424,0.58737 -0.3307293,0.7911 v 5.3e-4 c -0.2047877,0.20373 -0.4847172,0.32808 -0.7958674,0.32808 -0.31009189,0 -0.58896295,-0.12496 -0.7937507,-0.32861 -0.20425834,-0.20373 -0.32967097,-0.48154 -0.32967097,-0.7911 0,-0.30904 0.12541293,-0.58685 0.32967097,-0.79216 0.20478775,-0.20373 0.48365881,-0.32863 0.7937507,-0.32863 0.3111502,0 0.5905506,0.12592 0.7958674,0.32863 z m 0,0 z m -1.5896181,1.58379 v -5.1e-4 z m -0.32861267,-5.24933 v 1.61712 c 1.05515917,5.6e-4 2.05316827,0.41488 2.80088137,1.16259 0.7471839,0.74666 1.159405,1.74571 1.1609925,2.80511 h 5.293e-4 v 0.003 h 1.6229554 c -0.00106,-1.53989 -0.6265337,-2.93477 -1.6388304,-3.94759 -1.0117675,-1.0123 -2.406652,-1.63936 -3.94652817,-1.64042 z m 0.00211,-2.87868 v 1.61608 c 3.77349057,0.002 6.84001377,3.07393 6.84265947,6.8506 h 1.6208389 c -0.00106,-2.33363 -0.9498549,-4.44818 -2.4833811,-5.9833 -1.5329951,-1.53246 -3.6464883,-2.48232 -5.98011527,-2.48338"
         transform="translate(0,-288.533)"
         class="color00698c svgShape"
         id="path4"
         inkscape:connector-curvature="0"
         style="fill:#ffffff" />
    </svg>
  </g>
  <path
     inkscape:connector-curvature="0"
     d="m 13.653065,2.3623094 c -3.124879,-3.12144904 -8.1912319,-3.12144904 -11.312681,0 -3.12487956,3.121449 -3.12487956,8.1912316 0,11.3161116 3.1214491,3.124879 8.191232,3.121449 11.312681,0 3.12488,-3.12488 3.12488,-8.1946626 0,-11.3161116 z m -6.2223178,0.425341 h 1.6601995 c 0.497374,0 0.569408,0.288134 0.569408,0.463072 l -0.0034,0.150927 -0.01029,0.171508 -0.343017,6.0748205 C 9.2556177,10.10419 9.0532467,10.193375 8.7205207,10.193375 H 7.8355065 c -0.3327259,0 -0.5385357,-0.08919 -0.586558,-0.5556871 L 6.9093623,3.5765874 6.8956413,3.4016494 6.8922113,3.2507224 c 0,-0.174938 0.072034,-0.463072 0.5385359,-0.463072 z M 8.284858,14.457068 c -0.8712616,0 -1.5778754,-0.703183 -1.5778754,-1.564154 0,-0.884982 0.6928931,-1.577876 1.5778754,-1.577876 0.8609707,0 1.5641547,0.706614 1.5641547,1.577876 0,0.84725 -0.716904,1.564154 -1.5641547,1.564154"
     style="fill:#3d3b39;fill-opacity:1;fill-rule:nonzero;stroke:none;stroke-width:0.34301639"
     id="path6998" />
</svg>
