<?xml version="1.0" encoding="UTF-8" standalone="no"?>
<svg
   xmlns:dc="http://purl.org/dc/elements/1.1/"
   xmlns:cc="http://creativecommons.org/ns#"
   xmlns:rdf="http://www.w3.org/1999/02/22-rdf-syntax-ns#"
   xmlns:svg="http://www.w3.org/2000/svg"
   xmlns="http://www.w3.org/2000/svg"
   xmlns:sodipodi="http://sodipodi.sourceforge.net/DTD/sodipodi-0.dtd"
   xmlns:inkscape="http://www.inkscape.org/namespaces/inkscape"
   id="SvgjsSvg1062"
   width="32"
   height="32"
   version="1.1"
   sodipodi:docname="economy.svg"
   inkscape:version="0.92.5 (2060ec1f9f, 2020-04-08)">
  <metadata
     id="metadata12">
    <rdf:RDF>
      <cc:Work
         rdf:about="">
        <dc:format>image/svg+xml</dc:format>
        <dc:type
           rdf:resource="http://purl.org/dc/dcmitype/StillImage" />
        <dc:title></dc:title>
      </cc:Work>
    </rdf:RDF>
  </metadata>
  <sodipodi:namedview
     pagecolor="#ffffff"
     bordercolor="#666666"
     borderopacity="1"
     objecttolerance="10"
     gridtolerance="10"
     guidetolerance="10"
     inkscape:pageopacity="0"
     inkscape:pageshadow="2"
     inkscape:window-width="1864"
     inkscape:window-height="1016"
     id="namedview10"
     showgrid="false"
     inkscape:zoom="18.59375"
     inkscape:cx="20.538461"
     inkscape:cy="11.89507"
     inkscape:window-x="56"
     inkscape:window-y="27"
     inkscape:window-maximized="1"
     inkscape:current-layer="SvgjsSvg1062"
     inkscape:document-rotation="0" />
  <defs
     id="SvgjsDefs1063" />
  <g
     id="SvgjsG1064"
     transform="matrix(0.71,0,0,0.71,41.852738,-214.33282)">
    <svg
       width="288"
       height="288"
       viewBox="0 0 8.467 8.467"
       version="1.1"
       id="svg6">
      <path
         d="m 1.9288571,295.06795 c 0.2047877,0.20531 0.3296711,0.48312 0.3307293,0.79216 -0.00106,0.30902 -0.1259424,0.58737 -0.3307293,0.7911 v 5.3e-4 c -0.2047877,0.20373 -0.4847172,0.32808 -0.7958674,0.32808 -0.31009189,0 -0.58896295,-0.12496 -0.7937507,-0.32861 -0.20425834,-0.20373 -0.32967097,-0.48154 -0.32967097,-0.7911 0,-0.30904 0.12541293,-0.58685 0.32967097,-0.79216 0.20478775,-0.20373 0.48365881,-0.32863 0.7937507,-0.32863 0.3111502,0 0.5905506,0.12592 0.7958674,0.32863 z m 0,0 z m -1.5896181,1.58379 v -5.1e-4 z m -0.32861267,-5.24933 v 1.61712 c 1.05515917,5.6e-4 2.05316827,0.41488 2.80088137,1.16259 0.7471839,0.74666 1.159405,1.74571 1.1609925,2.80511 h 5.293e-4 v 0.003 h 1.6229554 c -0.00106,-1.53989 -0.6265337,-2.93477 -1.6388304,-3.94759 -1.0117675,-1.0123 -2.406652,-1.63936 -3.94652817,-1.64042 z m 0.00211,-2.87868 v 1.61608 c 3.77349057,0.002 6.84001377,3.07393 6.84265947,6.8506 h 1.6208389 c -0.00106,-2.33363 -0.9498549,-4.44818 -2.4833811,-5.9833 -1.5329951,-1.53246 -3.6464883,-2.48232 -5.98011527,-2.48338"
         transform="translate(0,-288.533)"
         class="color00698c svgShape"
         id="path4"
         inkscape:connector-curvature="0"
         style="fill:#ffffff" />
    </svg>
  </g>
  <path
     inkscape:connector-curvature="0"
     d="m 20.974967,0.02770587 c -5.75488,0 -10.471779,4.45901623 -10.957921,10.03278713 -5.6234929,0.524591 -10.04476594,5.180328 -10.04476594,10.95082 0,6.098361 4.92712534,11.016393 10.99734094,11.016393 5.754881,0 10.471781,-4.459016 10.951355,-10.032787 5.63663,-0.52459 10.051332,-5.245902 10.051332,-10.950819 0,-6.0983619 -4.920554,-11.01639413 -10.997341,-11.01639413 z M 10.969623,29.994919 c -4.9599709,0 -8.9936432,-4 -8.9936432,-8.983606 0,-4.655738 3.5409601,-8.393443 8.0542062,-8.852459 0.06569,0.655737 0.197085,1.311475 0.3876,1.967212 1.105863,4.537871 5.493515,7.227492 9.460075,7.803283 -0.479574,4.524589 -4.263604,8.065574 -8.90824,8.065574 z m 10.005346,-9.967213 c -4.966541,0 -9.000212,-4.065574 -9.000212,-8.983606 0,-4.9836074 4.033671,-8.9836077 9.000212,-8.9836077 4.959973,0 8.993644,4.0000003 8.993644,8.9836077 0,4.918032 -4.033671,8.983606 -8.993644,8.983606"
     style="fill:#3d3b39;fill-opacity:1;fill-rule:nonzero;stroke:none;stroke-width:0.65634352"
     id="path1962"
     sodipodi:nodetypes="scsscsscsccccccsssc" />
  <path
     inkscape:connector-curvature="0"
     d="m 23.3487,6.6188828 c 0.209415,0 0.209415,0 0.209415,0 0.229946,0.041062 0.414724,-0.2463705 0.414724,-0.5748645 0,-0.328494 -0.184778,-0.656988 -0.414724,-0.6980498 0,0 0,0 -0.209415,0 -2.44728,0 -4.50858,1.6014082 -5.280541,3.777681 h -0.973163 c -0.340813,0 -0.624139,0.2874323 -0.624139,0.6159263 0,0.3284942 0.283326,0.6159262 0.624139,0.6159262 h 0.689837 c -0.02053,0.205309 -0.06159,0.410618 -0.06159,0.615927 0,0.24637 0.04106,0.451679 0.06159,0.656987 h -0.689837 c -0.340813,0 -0.624139,0.246371 -0.624139,0.615927 0,0.328494 0.283326,0.615926 0.624139,0.615926 h 0.973163 c 0.771961,2.176273 2.833261,3.73662 5.280541,3.73662 0.209415,0 0.209415,0 0.209415,0 0.229946,-0.04106 0.414724,-0.328494 0.414724,-0.656988 0,-0.369556 -0.184778,-0.615927 -0.414724,-0.574865 0,0 0,0 -0.209415,0 -1.741018,0 -3.231559,-1.026544 -3.937821,-2.504767 h 2.685438 c 0.344919,0 0.624139,-0.287432 0.624139,-0.615926 0,-0.369556 -0.27922,-0.615927 -0.624139,-0.615927 h -3.0591 c -0.03285,-0.205308 -0.0657,-0.410617 -0.0657,-0.656987 0,-0.205309 0.03285,-0.410618 0.0657,-0.615927 h 3.0591 c 0.344919,0 0.624139,-0.287432 0.624139,-0.6159262 0,-0.328494 -0.27922,-0.6159263 -0.624139,-0.6159263 H 19.410879 C 20.117141,7.6454265 21.607682,6.6188828 23.3487,6.6188828"
     style="fill:#3d3b39;fill-opacity:1;fill-rule:nonzero;stroke:none;stroke-width:0.4106175"
     id="path5482" />
  <path
     inkscape:connector-curvature="0"
     d="m 13.076432,17.16006 c 0.209415,0 0.209415,0 0.209415,0 0.229946,0.04106 0.414724,-0.246371 0.414724,-0.574865 0,-0.328494 -0.184778,-0.656988 -0.414724,-0.69805 0,0 0,0 -0.209415,0 -2.44728,0 -4.5085801,1.601409 -5.2805411,3.777682 h -0.973163 c -0.340813,0 -0.624139,0.287432 -0.624139,0.615926 0,0.328494 0.283326,0.615926 0.624139,0.615926 h 0.689837 c -0.02053,0.205309 -0.06159,0.410618 -0.06159,0.615927 0,0.24637 0.04106,0.451679 0.06159,0.656987 h -0.689837 c -0.340813,0 -0.624139,0.246371 -0.624139,0.615927 0,0.328494 0.283326,0.615926 0.624139,0.615926 h 0.973163 c 0.771961,2.176273 2.8332611,3.73662 5.2805411,3.73662 0.209415,0 0.209415,0 0.209415,0 0.229946,-0.04106 0.414724,-0.328493 0.414724,-0.656988 0,-0.369555 -0.184778,-0.615927 -0.414724,-0.574865 0,0 0,0 -0.209415,0 -1.741018,0 -3.2315591,-1.026544 -3.9378211,-2.504767 h 2.6854381 c 0.344919,0 0.624139,-0.287432 0.624139,-0.615926 0,-0.369556 -0.27922,-0.615927 -0.624139,-0.615927 H 8.7649489 c -0.03285,-0.205308 -0.0657,-0.410617 -0.0657,-0.656987 0,-0.205309 0.03285,-0.410618 0.0657,-0.615927 h 3.0591001 c 0.344919,0 0.624139,-0.287432 0.624139,-0.615926 0,-0.328494 -0.27922,-0.615926 -0.624139,-0.615926 H 9.1386109 C 9.8448729,18.186604 11.335414,17.16006 13.076432,17.16006"
     style="fill:#3d3b39;fill-opacity:1;fill-rule:nonzero;stroke:none;stroke-width:0.4106175"
     id="path5482-3" />
</svg>
