<?xml version="1.0" encoding="UTF-8" standalone="no"?>
<svg
   xmlns:dc="http://purl.org/dc/elements/1.1/"
   xmlns:cc="http://creativecommons.org/ns#"
   xmlns:rdf="http://www.w3.org/1999/02/22-rdf-syntax-ns#"
   xmlns:svg="http://www.w3.org/2000/svg"
   xmlns="http://www.w3.org/2000/svg"
   xmlns:sodipodi="http://sodipodi.sourceforge.net/DTD/sodipodi-0.dtd"
   xmlns:inkscape="http://www.inkscape.org/namespaces/inkscape"
   width="32"
   height="32"
   viewBox="0 0 8.4666665 8.4666669"
   version="1.1"
   id="svg14997"
   sodipodi:docname="img.svg"
   inkscape:version="1.0.2 (e86c870879, 2021-01-15)"
   inkscape:export-filename="/home/paolo/Scaricati/img.png"
   inkscape:export-xdpi="48.075718"
   inkscape:export-ydpi="48.075718">
  <defs
     id="defs14991">
    <clipPath
       clipPathUnits="userSpaceOnUse"
       id="clipPath15602">
      <g
         inkscape:label="Clip"
         id="use15604">
        <path
           style="fill:#00698c;fill-opacity:1;stroke-width:0.47037035"
           id="path15608"
           d="M 0.94195906,289.47494 H 7.5271441 v 6.58518 H 4.2345516 v 0.94074 h 3.2925925 c 0.5221111,0 0.9407408,-0.42334 0.9407408,-0.94074 v -6.58518 c 0,-0.51742 -0.4186297,-0.94074 -0.9407408,-0.94074 H 0.94195906 c -0.5174075,0 -0.9407408,0.42332 -0.9407408,0.94074 v 3.29259 h 0.9407408 z m 2.35185174,7.52592 v -0.94074 H 1.6051813 l 4.6237406,-4.62374 -0.6632222,-0.66321 -4.62374064,4.62373 v -1.68862 h -0.9407408 v 3.29258 z"
           inkscape:connector-curvature="0"
           clip-path="none" />
      </g>
    </clipPath>
  </defs>
  <sodipodi:namedview
     id="base"
     pagecolor="#ffffff"
     bordercolor="#666666"
     borderopacity="1.0"
     inkscape:pageopacity="0.0"
     inkscape:pageshadow="2"
     inkscape:zoom="15.839192"
     inkscape:cx="7.3045551"
     inkscape:cy="15.481956"
     inkscape:document-units="mm"
     inkscape:current-layer="layer1"
     showgrid="false"
     units="px"
     inkscape:window-width="1920"
     inkscape:window-height="1017"
     inkscape:window-x="-8"
     inkscape:window-y="-8"
     inkscape:window-maximized="1"
     inkscape:document-rotation="0" />
  <metadata
     id="metadata14994">
    <rdf:RDF>
      <cc:Work
         rdf:about="">
        <dc:format>image/svg+xml</dc:format>
        <dc:type
           rdf:resource="http://purl.org/dc/dcmitype/StillImage" />
        <dc:title />
      </cc:Work>
    </rdf:RDF>
  </metadata>
  <g
     inkscape:label="Livello 1"
     inkscape:groupmode="layer"
     id="layer1"
     transform="translate(0,-288.53332)">
    <path
       inkscape:connector-curvature="0"
       d="M 4.9942778,288.54045 H 0.01266003 v 8.46666 H 7.4207734 v -6.04017 z m 1.3679458,7.40812 H 1.0712103 v -6.34958 h 3.4833083 l 1.807705,1.80598 v 4.5436"
       style="fill:#3d3b39;fill-opacity:1;fill-rule:nonzero;stroke:none;stroke-width:0.17381778"
       id="path4334" />
    <path
       inkscape:connector-curvature="0"
       d="m 2.5267442,292.99494 c 0.3912855,0 0.7080406,-0.30143 0.7080406,-0.67198 0,-0.37054 -0.3167551,-0.67199 -0.7080406,-0.67199 -0.3912857,0 -0.7095934,0.30145 -0.7095934,0.67199 0,0.37055 0.3183077,0.67198 0.7095934,0.67198"
       style="fill:#3d3b39;fill-opacity:1;fill-rule:nonzero;stroke:none;stroke-width:0.15110172"
       id="path4412" />
    <path
       inkscape:connector-curvature="0"
       d="m 2.7627578,293.89045 -0.945607,1.34249 h 3.7824279 l -0.945607,-3.13349 -0.945607,2.68501 -0.9456069,-0.89401"
       style="fill:#3d3b39;fill-opacity:1;fill-rule:nonzero;stroke:none;stroke-width:0.15110172"
       id="path4414" />
  </g>
</svg>
