<?xml version="1.0" encoding="UTF-8" standalone="no"?>
<svg
   xmlns:dc="http://purl.org/dc/elements/1.1/"
   xmlns:cc="http://creativecommons.org/ns#"
   xmlns:rdf="http://www.w3.org/1999/02/22-rdf-syntax-ns#"
   xmlns:svg="http://www.w3.org/2000/svg"
   xmlns="http://www.w3.org/2000/svg"
   xmlns:sodipodi="http://sodipodi.sourceforge.net/DTD/sodipodi-0.dtd"
   xmlns:inkscape="http://www.inkscape.org/namespaces/inkscape"
   width="32"
   height="32"
   viewBox="0 0 8.4666665 8.4666669"
   version="1.1"
   id="svg14997"
   sodipodi:docname="smartcard.svg"
   inkscape:version="0.92.5 (2060ec1f9f, 2020-04-08)"
   inkscape:export-filename="/home/paolo/Dropbox/LAVORO/00_grafica/PortaleAppalti/img/smartcard.png"
   inkscape:export-xdpi="48.075718"
   inkscape:export-ydpi="48.075718">
  <defs
     id="defs14991">
    <clipPath
       clipPathUnits="userSpaceOnUse"
       id="clipPath15602">
      <g
         inkscape:label="Clip"
         id="use15604">
        <path
           style="fill:#00698c;fill-opacity:1;stroke-width:0.47037035"
           id="path15608"
           d="M 0.94195906,289.47494 H 7.5271441 v 6.58518 H 4.2345516 v 0.94074 h 3.2925925 c 0.5221111,0 0.9407408,-0.42334 0.9407408,-0.94074 v -6.58518 c 0,-0.51742 -0.4186297,-0.94074 -0.9407408,-0.94074 H 0.94195906 c -0.5174075,0 -0.9407408,0.42332 -0.9407408,0.94074 v 3.29259 h 0.9407408 z m 2.35185174,7.52592 v -0.94074 H 1.6051813 l 4.6237406,-4.62374 -0.6632222,-0.66321 -4.62374064,4.62373 v -1.68862 h -0.9407408 v 3.29258 z"
           inkscape:connector-curvature="0"
           clip-path="none" />
      </g>
    </clipPath>
  </defs>
  <sodipodi:namedview
     id="base"
     pagecolor="#ffffff"
     bordercolor="#666666"
     borderopacity="1.0"
     inkscape:pageopacity="0.0"
     inkscape:pageshadow="2"
     inkscape:zoom="15.839192"
     inkscape:cx="-1.0917042"
     inkscape:cy="15.229418"
     inkscape:document-units="mm"
     inkscape:current-layer="layer1"
     showgrid="false"
     units="px"
     inkscape:window-width="1864"
     inkscape:window-height="1016"
     inkscape:window-x="56"
     inkscape:window-y="27"
     inkscape:window-maximized="1"
     inkscape:document-rotation="0" />
  <metadata
     id="metadata14994">
    <rdf:RDF>
      <cc:Work
         rdf:about="">
        <dc:format>image/svg+xml</dc:format>
        <dc:type
           rdf:resource="http://purl.org/dc/dcmitype/StillImage" />
        <dc:title />
      </cc:Work>
    </rdf:RDF>
  </metadata>
  <g
     inkscape:label="Livello 1"
     inkscape:groupmode="layer"
     id="layer1"
     transform="translate(0,-288.53332)">
    <path
       inkscape:connector-curvature="0"
       d="m 5.814025,290.65756 v -2.1171 H 2.6383741 v 2.1171 H 2.109968 v 2.64551 c 0,0.69006 0.4432354,1.2706 1.0568121,1.48961 v 0.36155 c 0,0.14607 0.1199337,0.2642 0.2659413,0.2642 h 0.264203 v 1.58869 h 1.0585503 v -1.58869 h 0.2642029 c 0.1460074,0 0.2642031,-0.11823 0.2642031,-0.2642 v -0.36155 c 0.6153152,-0.21901 1.0585498,-0.79955 1.0585498,-1.48961 v -2.64551 z M 3.1667801,289.0706 h 0.5301443 v 1.05682 H 3.1667801 Z m 2.1171006,1.05682 h -0.528406 v -1.05682 h 0.528406 v 1.05682"
       style="fill:#3d3b39;fill-opacity:1;fill-rule:nonzero;stroke:none;stroke-width:0.17381778"
       id="path2674" />
  </g>
</svg>
