<?xml version="1.0" encoding="UTF-8" standalone="no"?>
<svg
   xmlns:dc="http://purl.org/dc/elements/1.1/"
   xmlns:cc="http://creativecommons.org/ns#"
   xmlns:rdf="http://www.w3.org/1999/02/22-rdf-syntax-ns#"
   xmlns:svg="http://www.w3.org/2000/svg"
   xmlns="http://www.w3.org/2000/svg"
   xmlns:sodipodi="http://sodipodi.sourceforge.net/DTD/sodipodi-0.dtd"
   xmlns:inkscape="http://www.inkscape.org/namespaces/inkscape"
   width="32"
   height="32"
   viewBox="0 0 8.4666665 8.4666669"
   version="1.1"
   id="svg14997"
   sodipodi:docname="table_2.svg"
   inkscape:version="1.0.2 (e86c870879, 2021-01-15)"
   inkscape:export-filename="/home/paolo/Scaricati/table.png"
   inkscape:export-xdpi="96"
   inkscape:export-ydpi="96">
  <defs
     id="defs14991">
    <clipPath
       clipPathUnits="userSpaceOnUse"
       id="clipPath15602">
      <g
         inkscape:label="Clip"
         id="use15604">
        <path
           style="fill:#00698c;fill-opacity:1;stroke-width:0.47037035"
           id="path15608"
           d="M 0.94195906,289.47494 H 7.5271441 v 6.58518 H 4.2345516 v 0.94074 h 3.2925925 c 0.5221111,0 0.9407408,-0.42334 0.9407408,-0.94074 v -6.58518 c 0,-0.51742 -0.4186297,-0.94074 -0.9407408,-0.94074 H 0.94195906 c -0.5174075,0 -0.9407408,0.42332 -0.9407408,0.94074 v 3.29259 h 0.9407408 z m 2.35185174,7.52592 v -0.94074 H 1.6051813 l 4.6237406,-4.62374 -0.6632222,-0.66321 -4.62374064,4.62373 v -1.68862 h -0.9407408 v 3.29258 z"
           inkscape:connector-curvature="0"
           clip-path="none" />
      </g>
    </clipPath>
  </defs>
  <sodipodi:namedview
     id="base"
     pagecolor="#ffffff"
     bordercolor="#666666"
     borderopacity="1.0"
     inkscape:pageopacity="0.0"
     inkscape:pageshadow="2"
     inkscape:zoom="22.4"
     inkscape:cx="15.676745"
     inkscape:cy="17.270718"
     inkscape:document-units="mm"
     inkscape:current-layer="layer1"
     showgrid="false"
     units="px"
     inkscape:window-width="1920"
     inkscape:window-height="1017"
     inkscape:window-x="-8"
     inkscape:window-y="-8"
     inkscape:window-maximized="1"
     inkscape:document-rotation="0" />
  <metadata
     id="metadata14994">
    <rdf:RDF>
      <cc:Work
         rdf:about="">
        <dc:format>image/svg+xml</dc:format>
        <dc:type
           rdf:resource="http://purl.org/dc/dcmitype/StillImage" />
        <dc:title />
      </cc:Work>
    </rdf:RDF>
  </metadata>
  <g
     inkscape:label="Livello 1"
     inkscape:groupmode="layer"
     id="layer1"
     transform="translate(0,-288.53332)">
    <path
       inkscape:connector-curvature="0"
       d="M 7.6270905,289.39653 H 0.85375609 c -0.46566658,0 -0.84243332,0.38101 -0.84243332,0.84667 l -0.00424,5.08 c 0,0.46567 0.38100002,0.84666 0.8466666,0.84666 H 7.6270838 c 0.4656656,0 0.8466656,-0.38099 0.8466656,-0.84666 v -5.08 c 0,-0.46566 -0.381,-0.84667 -0.8466656,-0.84667 z M 5.5104232,295.3232 H 0.85375609 v -1.69334 H 5.5104232 Z m 0,-2.11667 H 0.85375609 V 291.5132 H 5.5104232 Z m 2.1166673,2.11667 H 5.933756 v -3.81 h 1.6933345 z"
       id="path4"
       style="stroke-width:0.42333335;fill:#3d3b39;fill-opacity:1" />
  </g>
</svg>
