<?xml version="1.0" encoding="UTF-8" standalone="no"?>
<svg
   xmlns:dc="http://purl.org/dc/elements/1.1/"
   xmlns:cc="http://creativecommons.org/ns#"
   xmlns:rdf="http://www.w3.org/1999/02/22-rdf-syntax-ns#"
   xmlns:svg="http://www.w3.org/2000/svg"
   xmlns="http://www.w3.org/2000/svg"
   xmlns:sodipodi="http://sodipodi.sourceforge.net/DTD/sodipodi-0.dtd"
   xmlns:inkscape="http://www.inkscape.org/namespaces/inkscape"
   id="SvgjsSvg1062"
   width="32"
   height="32"
   version="1.1"
   sodipodi:docname="config.svg"
   inkscape:version="0.92.5 (2060ec1f9f, 2020-04-08)">
  <metadata
     id="metadata12">
    <rdf:RDF>
      <cc:Work
         rdf:about="">
        <dc:format>image/svg+xml</dc:format>
        <dc:type
           rdf:resource="http://purl.org/dc/dcmitype/StillImage" />
        <dc:title></dc:title>
      </cc:Work>
    </rdf:RDF>
  </metadata>
  <sodipodi:namedview
     pagecolor="#ffffff"
     bordercolor="#666666"
     borderopacity="1"
     objecttolerance="10"
     gridtolerance="10"
     guidetolerance="10"
     inkscape:pageopacity="0"
     inkscape:pageshadow="2"
     inkscape:window-width="1864"
     inkscape:window-height="1016"
     id="namedview10"
     showgrid="false"
     inkscape:zoom="13.147767"
     inkscape:cx="4.2336021"
     inkscape:cy="14.48331"
     inkscape:window-x="56"
     inkscape:window-y="27"
     inkscape:window-maximized="1"
     inkscape:current-layer="SvgjsSvg1062"
     inkscape:document-rotation="0" />
  <defs
     id="SvgjsDefs1063" />
  <g
     id="SvgjsG1064"
     transform="matrix(0.71,0,0,0.71,41.852738,-214.33282)">
    <svg
       width="288"
       height="288"
       viewBox="0 0 8.467 8.467"
       version="1.1"
       id="svg6">
      <path
         d="m 1.9288571,295.06795 c 0.2047877,0.20531 0.3296711,0.48312 0.3307293,0.79216 -0.00106,0.30902 -0.1259424,0.58737 -0.3307293,0.7911 v 5.3e-4 c -0.2047877,0.20373 -0.4847172,0.32808 -0.7958674,0.32808 -0.31009189,0 -0.58896295,-0.12496 -0.7937507,-0.32861 -0.20425834,-0.20373 -0.32967097,-0.48154 -0.32967097,-0.7911 0,-0.30904 0.12541293,-0.58685 0.32967097,-0.79216 0.20478775,-0.20373 0.48365881,-0.32863 0.7937507,-0.32863 0.3111502,0 0.5905506,0.12592 0.7958674,0.32863 z m 0,0 z m -1.5896181,1.58379 v -5.1e-4 z m -0.32861267,-5.24933 v 1.61712 c 1.05515917,5.6e-4 2.05316827,0.41488 2.80088137,1.16259 0.7471839,0.74666 1.159405,1.74571 1.1609925,2.80511 h 5.293e-4 v 0.003 h 1.6229554 c -0.00106,-1.53989 -0.6265337,-2.93477 -1.6388304,-3.94759 -1.0117675,-1.0123 -2.406652,-1.63936 -3.94652817,-1.64042 z m 0.00211,-2.87868 v 1.61608 c 3.77349057,0.002 6.84001377,3.07393 6.84265947,6.8506 h 1.6208389 c -0.00106,-2.33363 -0.9498549,-4.44818 -2.4833811,-5.9833 -1.5329951,-1.53246 -3.6464883,-2.48232 -5.98011527,-2.48338"
         transform="translate(0,-288.533)"
         class="color00698c svgShape"
         id="path4"
         inkscape:connector-curvature="0"
         style="fill:#ffffff" />
    </svg>
  </g>
  <path
     inkscape:connector-curvature="0"
     d="M 20.747708,18.861013 H 17.683517 C 17.501531,18.26976 17.244648,17.717922 16.931266,17.198931 l 2.035348,-2.036542 c 0.480257,-0.473003 0.480257,-1.248203 0,-1.727777 l -0.861968,-0.860603 c -0.480259,-0.473003 -1.255504,-0.473003 -1.729849,0 L 14.305941,14.63683 C 13.749473,14.321494 13.14373,14.078422 12.499225,13.907616 v -2.686923 c 0,-0.670088 -0.543986,-1.215355 -1.221341,-1.215355 h -1.22134 c -0.6727547,0 -1.2219967,0.545267 -1.2219967,1.215355 v 2.686923 c -0.700348,0.177377 -1.359964,0.459865 -1.9657081,0.827757 L 5.13899,13.007596 c -0.4769727,-0.479574 -1.252219,-0.479574 -1.7298493,0 L 2.5445457,13.8682 c -0.4750031,0.473002 -0.4723743,1.254772 0.00256,1.727776 l 1.7626988,1.767194 c -0.3744831,0.64381 -0.6517326,1.353315 -0.810723,2.108807 H 1.1970634 c -0.67472653,0 -1.22396833,0.545267 -1.22396833,1.221925 v 1.221926 c 0,0.670089 0.5492418,1.215356 1.22396833,1.215356 h 2.4584485 c 0.2207487,0.742353 0.5571263,1.419011 0.9881102,2.036542 l -1.6628365,1.662083 c -0.4776303,0.479572 -0.4776303,1.254773 -0.00256,1.734346 l 0.8626254,0.860604 c 0.4769727,0.473002 1.2548462,0.473002 1.7318189,0 l 1.8559864,-1.859167 c 0.623482,0.308767 1.303464,0.538699 2.016954,0.65695 v 2.555532 c 0,0.670089 0.5466142,1.221925 1.2213397,1.221925 h 1.221998 c 0.674727,0 1.223968,-0.551836 1.223968,-1.221925 v -2.870869 c 0.612969,-0.223363 1.198345,-0.512419 1.724593,-0.880311 l 1.970963,1.964278 c 0.475003,0.479573 1.249592,0.479573 1.727222,0 l 0.861968,-0.860604 c 0.480257,-0.479572 0.480257,-1.254773 -0.0026,-1.727777 l -2.15295,-2.161362 c 0.261481,-0.5387 0.467118,-1.110245 0.59523,-1.714638 h 2.910457 c 0.677355,0 1.223968,-0.545268 1.226597,-1.228496 v -1.215356 c -0.0026,-0.676657 -0.549242,-1.221926 -1.226597,-1.221926 z m -10.078195,5.189901 c -1.6858297,0 -3.0536787,-1.359887 -3.0536787,-3.054816 0,-1.688359 1.367849,-3.048244 3.0536787,-3.048244 1.688459,0 3.056308,1.359885 3.056308,3.048244 0,1.694929 -1.367849,3.054816 -3.056308,3.054816"
     style="fill:#3d3b39;fill-opacity:1;fill-rule:nonzero;stroke:none;stroke-width:0.65696859"
     id="path5126" />
  <path
     inkscape:connector-curvature="0"
     d="m 31.192501,5.6366251 h -1.94994 C 29.126932,5.262164 28.962684,4.9074112 28.76493,4.5789367 l 1.29361,-1.2941902 c 0.305499,-0.3021966 0.305499,-0.7949088 0,-1.0971054 L 29.509298,1.6358037 c -0.302872,-0.3021968 -0.795612,-0.3021968 -1.098484,0 L 27.094211,2.9497023 C 26.740094,2.7460481 26.355099,2.5949496 25.944481,2.4832684 V 0.78176942 C 25.944481,0.34818295 25.595622,-2.81135e-7 25.167265,-2.81135e-7 h -0.777873 c -0.428357,0 -0.777873,0.348183231135 -0.777873,0.781769701135 V 2.4832684 C 23.168051,2.601519 22.746922,2.7788954 22.361927,3.0088278 L 21.260815,1.9117223 c -0.300243,-0.3021966 -0.79824,-0.3021966 -1.101112,0 l -0.548584,0.5452681 c -0.302871,0.3087661 -0.3009,0.8014781 0,1.1036749 l 1.121479,1.1233833 c -0.239144,0.413878 -0.413247,0.8606035 -0.516394,1.3401766 H 18.75375 c -0.430984,0 -0.780502,0.3481832 -0.780502,0.7752001 v 0.7817696 c 0,0.4270171 0.349518,0.7752002 0.780502,0.7752002 h 1.560345 c 0.143888,0.4730041 0.356746,0.9000206 0.628738,1.294191 l -1.055122,1.0576879 c -0.302872,0.302196 -0.302872,0.794908 -0.0019,1.103674 l 0.548584,0.545269 c 0.305501,0.308765 0.798242,0.308765 1.101112,0 l 1.183235,-1.18251 c 0.397478,0.197084 0.826491,0.341613 1.283097,0.420447 v 1.622666 c 0,0.427017 0.348861,0.775199 0.777875,0.781769 h 0.777216 c 0.429013,-0.0066 0.777874,-0.354752 0.777874,-0.781769 v -1.826319 c 0.390251,-0.13796 0.762105,-0.321906 1.098484,-0.558407 l 1.252219,1.248203 c 0.30287,0.308766 0.792984,0.308766 1.101112,0 L 30.33586,11.53603 c 0.302871,-0.302197 0.302871,-0.794908 -0.0026,-1.103676 L 28.960177,9.0593313 C 29.129679,8.7177178 29.26042,8.3563951 29.342543,7.9753645 h 1.850078 c 0.431642,0 0.777873,-0.3547525 0.780502,-0.7817696 V 6.4118252 C 31.970423,5.9848081 31.624143,5.636625 31.192501,5.6366251 Z m -6.412858,3.3044555 c -1.072862,0 -1.945342,-0.8671735 -1.945342,-1.9445704 0,-1.0708274 0.87248,-1.94457 1.945342,-1.94457 1.074832,0 1.945341,0.8737426 1.945341,1.94457 0,1.0773969 -0.870509,1.9445704 -1.945341,1.9445704"
     style="fill:#3d3b39;fill-opacity:1;fill-rule:nonzero;stroke:none;stroke-width:0.65696859"
     id="path5128" />
</svg>
