<?xml version="1.0" encoding="UTF-8" standalone="no"?>
<svg
   xmlns:dc="http://purl.org/dc/elements/1.1/"
   xmlns:cc="http://creativecommons.org/ns#"
   xmlns:rdf="http://www.w3.org/1999/02/22-rdf-syntax-ns#"
   xmlns:svg="http://www.w3.org/2000/svg"
   xmlns="http://www.w3.org/2000/svg"
   xmlns:sodipodi="http://sodipodi.sourceforge.net/DTD/sodipodi-0.dtd"
   xmlns:inkscape="http://www.inkscape.org/namespaces/inkscape"
   id="SvgjsSvg1062"
   width="24"
   height="24"
   version="1.1"
   sodipodi:docname="go.svg"
   inkscape:version="0.92.5 (2060ec1f9f, 2020-04-08)">
  <metadata
     id="metadata12">
    <rdf:RDF>
      <cc:Work
         rdf:about="">
        <dc:format>image/svg+xml</dc:format>
        <dc:type
           rdf:resource="http://purl.org/dc/dcmitype/StillImage" />
        <dc:title></dc:title>
      </cc:Work>
    </rdf:RDF>
  </metadata>
  <sodipodi:namedview
     pagecolor="#ffffff"
     bordercolor="#666666"
     borderopacity="1"
     objecttolerance="10"
     gridtolerance="10"
     guidetolerance="10"
     inkscape:pageopacity="0"
     inkscape:pageshadow="2"
     inkscape:window-width="1864"
     inkscape:window-height="1016"
     id="namedview10"
     showgrid="false"
     inkscape:zoom="26.295533"
     inkscape:cx="11.406492"
     inkscape:cy="10.125537"
     inkscape:window-x="56"
     inkscape:window-y="27"
     inkscape:window-maximized="1"
     inkscape:current-layer="SvgjsSvg1062"
     inkscape:document-rotation="0" />
  <defs
     id="SvgjsDefs1063" />
  <g
     id="SvgjsG1064"
     transform="matrix(0.71,0,0,0.71,41.852738,-222.33282)">
    <svg
       width="288"
       height="288"
       viewBox="0 0 8.467 8.467"
       version="1.1"
       id="svg6">
      <path
         d="m 1.9288571,295.06795 c 0.2047877,0.20531 0.3296711,0.48312 0.3307293,0.79216 -0.00106,0.30902 -0.1259424,0.58737 -0.3307293,0.7911 v 5.3e-4 c -0.2047877,0.20373 -0.4847172,0.32808 -0.7958674,0.32808 -0.31009189,0 -0.58896295,-0.12496 -0.7937507,-0.32861 -0.20425834,-0.20373 -0.32967097,-0.48154 -0.32967097,-0.7911 0,-0.30904 0.12541293,-0.58685 0.32967097,-0.79216 0.20478775,-0.20373 0.48365881,-0.32863 0.7937507,-0.32863 0.3111502,0 0.5905506,0.12592 0.7958674,0.32863 z m 0,0 z m -1.5896181,1.58379 v -5.1e-4 z m -0.32861267,-5.24933 v 1.61712 c 1.05515917,5.6e-4 2.05316827,0.41488 2.80088137,1.16259 0.7471839,0.74666 1.159405,1.74571 1.1609925,2.80511 h 5.293e-4 v 0.003 h 1.6229554 c -0.00106,-1.53989 -0.6265337,-2.93477 -1.6388304,-3.94759 -1.0117675,-1.0123 -2.406652,-1.63936 -3.94652817,-1.64042 z m 0.00211,-2.87868 v 1.61608 c 3.77349057,0.002 6.84001377,3.07393 6.84265947,6.8506 h 1.6208389 c -0.00106,-2.33363 -0.9498549,-4.44818 -2.4833811,-5.9833 -1.5329951,-1.53246 -3.6464883,-2.48232 -5.98011527,-2.48338"
         transform="translate(0,-288.533)"
         class="color00698c svgShape"
         id="path4"
         inkscape:connector-curvature="0"
         style="fill:#ffffff" />
    </svg>
  </g>
  <path
     inkscape:connector-curvature="0"
     d="m 19.55528,12.097279 -7.4235,-7.4234995 v 5.1719999 l -7.5765006,0.003 0.003,4.4984996 7.5735006,-0.0014 v 5.175 l 7.4235,-7.4235"
     style="fill:#3d3b39;fill-opacity:1;fill-rule:nonzero;stroke:none;stroke-width:0.14999999"
     id="path98" />
  <path
     inkscape:connector-curvature="0"
     d="m 12.05528,1.5207795 c 5.79,0 10.5,4.7114999 10.5,10.4999995 0,5.7885 -4.71,10.5 -10.5,10.5 -5.7900006,0 -10.5000005,-4.7115 -10.5000005,-10.5 0,-5.7884996 4.7099999,-10.4999995 10.5000005,-10.4999995 m 0,-1.49999995 c -6.6270006,0 -12.0000004,5.37299995 -12.0000004,11.99999945 0,6.627 5.3729998,12 12.0000004,12 6.627,0 12,-5.373 12,-12 0,-6.6269995 -5.373,-11.99999945 -12,-11.99999945 v 0"
     style="fill:#e3914b;fill-opacity:1;fill-rule:nonzero;stroke:none;stroke-width:0.14999999"
     id="path100" />
  <path
     inkscape:connector-curvature="0"
     d="m 12.094437,1.0207758 c -6.0746497,0 -11.0011286,4.9275333 -11.0011286,11.0022462 0,6.074725 4.9264789,10.997761 11.0011286,10.997761 6.07465,0 10.998871,-4.923036 10.998871,-10.997761 0,-6.0747129 -4.924221,-11.0022462 -10.998871,-11.0022462 z m 0,20.6269992 c -5.3072447,0 -9.6266648,-4.317839 -9.6266648,-9.624753 0,-5.3069139 4.3194201,-9.6246983 9.6266648,-9.6246983 5.305438,0 9.624404,4.3177844 9.624404,9.6246983 0,5.306914 -4.318966,9.624753 -9.624404,9.624753"
     style="display:inline;fill:#e3914b;fill-opacity:1;fill-rule:nonzero;stroke:none;stroke-width:0.45166647"
     id="path4998-7" />
</svg>
