<?xml version="1.0" encoding="UTF-8" standalone="no"?>
<svg
 xmlns:dc="http://purl.org/dc/elements/1.1/"
 xmlns:cc="http://creativecommons.org/ns#"
 xmlns:rdf="http://www.w3.org/1999/02/22-rdf-syntax-ns#"
 xmlns:svg="http://www.w3.org/2000/svg"
 xmlns="http://www.w3.org/2000/svg"
 xmlns:sodipodi="http://sodipodi.sourceforge.net/DTD/sodipodi-0.dtd"
 xmlns:inkscape="http://www.inkscape.org/namespaces/inkscape"
 id="SvgjsSvg1062"
 width="32"
 height="32"
 version="1.1"
 sodipodi:docname="info_2.svg"
 inkscape:version="0.92.5 (2060ec1f9f, 2020-04-08)">
<metadata
 id="metadata12">
<rdf:RDF>
<cc:Work
 rdf:about="">
<dc:format>image/svg+xml</dc:format>
<dc:type
 rdf:resource="http://purl.org/dc/dcmitype/StillImage" />
<dc:title></dc:title>
</cc:Work>
</rdf:RDF>
</metadata>
<sodipodi:namedview
 pagecolor="#ffffff"
 bordercolor="#666666"
 borderopacity="1"
 objecttolerance="10"
 gridtolerance="10"
 guidetolerance="10"
 inkscape:pageopacity="0"
 inkscape:pageshadow="2"
 inkscape:window-width="1864"
 inkscape:window-height="1016"
 id="namedview10"
 showgrid="false"
 inkscape:zoom="18.541911"
 inkscape:cx="13.103328"
 inkscape:cy="11.842725"
 inkscape:window-x="56"
 inkscape:window-y="27"
 inkscape:window-maximized="1"
 inkscape:current-layer="SvgjsSvg1062"
 inkscape:document-rotation="0" />
<defs
 id="SvgjsDefs1063" />
<g
 id="SvgjsG1064"
 transform="matrix(0.71,0,0,0.71,41.852738,-214.33282)">
<svg
 width="288"
 height="288"
 viewBox="0 0 8.467 8.467"
 version="1.1"
 id="svg6">
<path
 d="m 1.9288571,295.06795 c 0.2047877,0.20531 0.3296711,0.48312 0.3307293,0.79216 -0.00106,0.30902 -0.1259424,0.58737 -0.3307293,0.7911 v 5.3e-4 c -0.2047877,0.20373 -0.4847172,0.32808 -0.7958674,0.32808 -0.31009189,0 -0.58896295,-0.12496 -0.7937507,-0.32861 -0.20425834,-0.20373 -0.32967097,-0.48154 -0.32967097,-0.7911 0,-0.30904 0.12541293,-0.58685 0.32967097,-0.79216 0.20478775,-0.20373 0.48365881,-0.32863 0.7937507,-0.32863 0.3111502,0 0.5905506,0.12592 0.7958674,0.32863 z m 0,0 z m -1.5896181,1.58379 v -5.1e-4 z m -0.32861267,-5.24933 v 1.61712 c 1.05515917,5.6e-4 2.05316827,0.41488 2.80088137,1.16259 0.7471839,0.74666 1.159405,1.74571 1.1609925,2.80511 h 5.293e-4 v 0.003 h 1.6229554 c -0.00106,-1.53989 -0.6265337,-2.93477 -1.6388304,-3.94759 -1.0117675,-1.0123 -2.406652,-1.63936 -3.94652817,-1.64042 z m 0.00211,-2.87868 v 1.61608 c 3.77349057,0.002 6.84001377,3.07393 6.84265947,6.8506 h 1.6208389 c -0.00106,-2.33363 -0.9498549,-4.44818 -2.4833811,-5.9833 -1.5329951,-1.53246 -3.6464883,-2.48232 -5.98011527,-2.48338"
 transform="translate(0,-288.533)"
 class="color00698c svgShape"
 id="path4"
 inkscape:connector-curvature="0"
 style="fill:#ffffff" />
</svg>
</g>
<path
 inkscape:connector-curvature="0"
 d="m 16.016949,-0.01694908 c -8.835855,0 -16.001642,7.16732098 -16.001642,16.00326708 0,8.835963 7.165787,15.996743 16.001642,15.996743 8.835854,0 15.998358,-7.16078 15.998358,-15.996743 0,-8.8359461 -7.162504,-16.00326708 -15.998358,-16.00326708 z m 0,30.00290808 c -7.71963,0 -14.002422,-6.280493 -14.002422,-13.999641 0,-7.7191476 6.282792,-13.9995611 14.002422,-13.9995611 7.717001,0 13.999134,6.2804135 13.999134,13.9995611 0,7.719148 -6.282133,13.999641 -13.999134,13.999641"
 style="display:inline;fill:#e3914b;fill-opacity:1;fill-rule:nonzero;stroke:none;stroke-width:0.65696943"
 id="path4998" />
<g
 aria-label="i"
 transform="translate(-113.27532,-240.91053)"
 style="font-style:normal;font-variant:normal;font-weight:bold;font-stretch:normal;font-size:21.33333397px;line-height:1.25;font-family:'PT Serif';-inkscape-font-specification:'PT Serif, Bold';font-variant-ligatures:normal;font-variant-caps:normal;font-variant-numeric:normal;font-feature-settings:normal;text-align:start;letter-spacing:0px;word-spacing:0px;writing-mode:lr-tb;text-anchor:start;display:inline;fill:#16475c;fill-opacity:1;stroke:none"
 id="flowRoot18">
<path
 id="path866"
 style=""
 d="m 132.26418,264.64095 h -5.888 v -0.832 q 0.32,-0.17066 0.66133,-0.27733 0.34133,-0.128 0.74667,-0.23467 v -7.808 l -1.408,-0.17066 v -0.832 q 0.32,-0.128 0.78933,-0.256 0.49067,-0.128 1.024,-0.21334 0.53333,-0.10666 1.04533,-0.17066 0.512,-0.0853 0.896,-0.128 h 0.72534 v 9.57866 q 0.42666,0.10667 0.768,0.23467 0.34133,0.10667 0.64,0.27733 z m -4.84267,-14.16533 q 0,-0.74667 0.512,-1.17333 0.512,-0.42667 1.32267,-0.42667 0.81066,0 1.32266,0.42667 0.512,0.42666 0.512,1.17333 0,0.72533 -0.512,1.152 -0.512,0.42667 -1.32266,0.42667 -0.81067,0 -1.32267,-0.42667 -0.512,-0.42667 -0.512,-1.152 z" />
</g>
<path
 inkscape:connector-curvature="0"
 d="m 16.016795,1.4830514 c -8.0074936,0 -14.5014881,6.4953846 -14.5014881,14.5029596 0,8.007592 6.4939945,14.497049 14.5014881,14.497049 8.007493,0 14.498512,-6.489457 14.498512,-14.497049 0,-8.007575 -6.491019,-14.5029596 -14.498512,-14.5029596 z m 0,27.1901346 c -6.9959147,0 -12.6896949,-5.691697 -12.6896949,-12.687175 0,-6.9954763 5.6937802,-12.6871011 12.6896949,-12.6871011 6.993532,0 12.686715,5.6916248 12.686715,12.6871011 0,6.995478 -5.693183,12.687175 -12.686715,12.687175"
 style="display:inline;fill:#e3914b;fill-opacity:1;fill-rule:nonzero;stroke:none;stroke-width:0.59537852"
 id="path4998-7" />
</svg>
