<?xml version="1.0" encoding="UTF-8" standalone="no"?>
<svg
   xmlns:dc="http://purl.org/dc/elements/1.1/"
   xmlns:cc="http://creativecommons.org/ns#"
   xmlns:rdf="http://www.w3.org/1999/02/22-rdf-syntax-ns#"
   xmlns:svg="http://www.w3.org/2000/svg"
   xmlns="http://www.w3.org/2000/svg"
   xmlns:sodipodi="http://sodipodi.sourceforge.net/DTD/sodipodi-0.dtd"
   xmlns:inkscape="http://www.inkscape.org/namespaces/inkscape"
   id="SvgjsSvg1062"
   width="32"
   height="32"
   version="1.1"
   sodipodi:docname="rss.svg"
   inkscape:version="0.92.5 (2060ec1f9f, 2020-04-08)">
  <metadata
     id="metadata12">
    <rdf:RDF>
      <cc:Work
         rdf:about="">
        <dc:format>image/svg+xml</dc:format>
        <dc:type
           rdf:resource="http://purl.org/dc/dcmitype/StillImage" />
        <dc:title />
      </cc:Work>
    </rdf:RDF>
  </metadata>
  <sodipodi:namedview
     pagecolor="#ffffff"
     bordercolor="#666666"
     borderopacity="1"
     objecttolerance="10"
     gridtolerance="10"
     guidetolerance="10"
     inkscape:pageopacity="0"
     inkscape:pageshadow="2"
     inkscape:window-width="1864"
     inkscape:window-height="1016"
     id="namedview10"
     showgrid="false"
     inkscape:zoom="13.111111"
     inkscape:cx="-2.4979309"
     inkscape:cy="15.771648"
     inkscape:window-x="56"
     inkscape:window-y="27"
     inkscape:window-maximized="1"
     inkscape:current-layer="SvgjsSvg1062" />
  <defs
     id="SvgjsDefs1063" />
  <g
     id="SvgjsG1064"
     transform="matrix(0.71,0,0,0.71,41.852738,-214.33282)">
    <svg
       width="288"
       height="288"
       viewBox="0 0 8.467 8.467"
       version="1.1"
       id="svg6">
      <path
         d="m 1.9288571,295.06795 c 0.2047877,0.20531 0.3296711,0.48312 0.3307293,0.79216 -0.00106,0.30902 -0.1259424,0.58737 -0.3307293,0.7911 v 5.3e-4 c -0.2047877,0.20373 -0.4847172,0.32808 -0.7958674,0.32808 -0.31009189,0 -0.58896295,-0.12496 -0.7937507,-0.32861 -0.20425834,-0.20373 -0.32967097,-0.48154 -0.32967097,-0.7911 0,-0.30904 0.12541293,-0.58685 0.32967097,-0.79216 0.20478775,-0.20373 0.48365881,-0.32863 0.7937507,-0.32863 0.3111502,0 0.5905506,0.12592 0.7958674,0.32863 z m 0,0 z m -1.5896181,1.58379 v -5.1e-4 z m -0.32861267,-5.24933 v 1.61712 c 1.05515917,5.6e-4 2.05316827,0.41488 2.80088137,1.16259 0.7471839,0.74666 1.159405,1.74571 1.1609925,2.80511 h 5.293e-4 v 0.003 h 1.6229554 c -0.00106,-1.53989 -0.6265337,-2.93477 -1.6388304,-3.94759 -1.0117675,-1.0123 -2.406652,-1.63936 -3.94652817,-1.64042 z m 0.00211,-2.87868 v 1.61608 c 3.77349057,0.002 6.84001377,3.07393 6.84265947,6.8506 h 1.6208389 c -0.00106,-2.33363 -0.9498549,-4.44818 -2.4833811,-5.9833 -1.5329951,-1.53246 -3.6464883,-2.48232 -5.98011527,-2.48338"
         transform="translate(0,-288.533)"
         class="color00698c svgShape"
         id="path4"
         inkscape:connector-curvature="0"
         style="fill:#ffffff" />
    </svg>
  </g>
  <path
     inkscape:connector-curvature="0"
     d="m 8.4548568,23.60634 c 0.67725,0.679 1.09025,1.59775 1.09375,2.61975 -0.0035,1.022001 -0.4165,1.942501 -1.09375,2.616251 v 0.0018 c -0.67725,0.67375 -1.6030001,1.085 -2.6319966,1.085 -1.0255,0 -1.94775,-0.413 -2.625,-1.08675 -0.6755,-0.67375 -1.0902501,-1.5925 -1.0902501,-2.616251 0,-1.022 0.4147501,-1.94075 1.0902501,-2.61975 0.67725,-0.67375 1.5995,-1.08675 2.625,-1.08675 1.0289965,0 1.9529966,0.4165 2.6319966,1.08675 z m 0,0 z m -5.2569966,5.237751 v -0.0018 z M 2.1111102,11.48409 v 5.348 c 3.4895,0.0018 6.7899966,1.372 9.2627468,3.84475 2.471,2.46925 3.83425,5.77325 3.8395,9.276751 h 0.0017 v 0.0098 h 5.367251 C 20.57877,24.87089 18.51027,20.25789 15.162519,16.90839 c -3.346,-3.34775 -7.9589998,-5.4215 -13.0514964,-5.425 z m 0.007,-9.519991 V 7.3085991 C 14.597357,7.3155991 24.738609,17.47434 24.747359,29.964091 H 30.10761 C 30.10411,22.24659 26.966359,15.25359 21.894858,10.17685 16.825107,5.1088491 9.8356068,1.967599 2.1181102,1.964099"
     style="fill:#e3914b;fill-opacity:1;fill-rule:nonzero;stroke:none;stroke-width:0.17500003"
     id="path104" />
</svg>
