<?xml version="1.0" encoding="UTF-8" standalone="no"?>
<svg
   xmlns:dc="http://purl.org/dc/elements/1.1/"
   xmlns:cc="http://creativecommons.org/ns#"
   xmlns:rdf="http://www.w3.org/1999/02/22-rdf-syntax-ns#"
   xmlns:svg="http://www.w3.org/2000/svg"
   xmlns="http://www.w3.org/2000/svg"
   xmlns:sodipodi="http://sodipodi.sourceforge.net/DTD/sodipodi-0.dtd"
   xmlns:inkscape="http://www.inkscape.org/namespaces/inkscape"
   id="SvgjsSvg1062"
   width="32"
   height="32"
   version="1.1"
   sodipodi:docname="administration.svg"
   inkscape:version="0.92.5 (2060ec1f9f, 2020-04-08)">
  <metadata
     id="metadata12">
    <rdf:RDF>
      <cc:Work
         rdf:about="">
        <dc:format>image/svg+xml</dc:format>
        <dc:type
           rdf:resource="http://purl.org/dc/dcmitype/StillImage" />
        <dc:title></dc:title>
      </cc:Work>
    </rdf:RDF>
  </metadata>
  <sodipodi:namedview
     pagecolor="#ffffff"
     bordercolor="#666666"
     borderopacity="1"
     objecttolerance="10"
     gridtolerance="10"
     guidetolerance="10"
     inkscape:pageopacity="0"
     inkscape:pageshadow="2"
     inkscape:window-width="1864"
     inkscape:window-height="1016"
     id="namedview10"
     showgrid="false"
     inkscape:zoom="13.147767"
     inkscape:cx="14.324469"
     inkscape:cy="13.238943"
     inkscape:window-x="56"
     inkscape:window-y="27"
     inkscape:window-maximized="1"
     inkscape:current-layer="SvgjsSvg1062"
     inkscape:document-rotation="0" />
  <defs
     id="SvgjsDefs1063" />
  <g
     id="SvgjsG1064"
     transform="matrix(0.71,0,0,0.71,41.852738,-214.33282)">
    <svg
       width="288"
       height="288"
       viewBox="0 0 8.467 8.467"
       version="1.1"
       id="svg6">
      <path
         d="m 1.9288571,295.06795 c 0.2047877,0.20531 0.3296711,0.48312 0.3307293,0.79216 -0.00106,0.30902 -0.1259424,0.58737 -0.3307293,0.7911 v 5.3e-4 c -0.2047877,0.20373 -0.4847172,0.32808 -0.7958674,0.32808 -0.31009189,0 -0.58896295,-0.12496 -0.7937507,-0.32861 -0.20425834,-0.20373 -0.32967097,-0.48154 -0.32967097,-0.7911 0,-0.30904 0.12541293,-0.58685 0.32967097,-0.79216 0.20478775,-0.20373 0.48365881,-0.32863 0.7937507,-0.32863 0.3111502,0 0.5905506,0.12592 0.7958674,0.32863 z m 0,0 z m -1.5896181,1.58379 v -5.1e-4 z m -0.32861267,-5.24933 v 1.61712 c 1.05515917,5.6e-4 2.05316827,0.41488 2.80088137,1.16259 0.7471839,0.74666 1.159405,1.74571 1.1609925,2.80511 h 5.293e-4 v 0.003 h 1.6229554 c -0.00106,-1.53989 -0.6265337,-2.93477 -1.6388304,-3.94759 -1.0117675,-1.0123 -2.406652,-1.63936 -3.94652817,-1.64042 z m 0.00211,-2.87868 v 1.61608 c 3.77349057,0.002 6.84001377,3.07393 6.84265947,6.8506 h 1.6208389 c -0.00106,-2.33363 -0.9498549,-4.44818 -2.4833811,-5.9833 -1.5329951,-1.53246 -3.6464883,-2.48232 -5.98011527,-2.48338"
         transform="translate(0,-288.533)"
         class="color00698c svgShape"
         id="path4"
         inkscape:connector-curvature="0"
         style="fill:#ffffff" />
    </svg>
  </g>
  <path
     inkscape:connector-curvature="0"
     d="m 13.089091,2.2051678 h 6.000294 c 1.290985,0.07511 2.376335,0.976526 2.794837,2.328639 h 2.086601 c -0.469747,-2.629109 -2.474225,-4.58215997 -4.876182,-4.58215997 h -6.000293 c -2.412468,0 -4.439941,1.95305097 -4.90969,4.50704197 l 2.083974,0.07512 c 0.415875,-1.352113 1.519618,-2.328639 2.820459,-2.328639"
     style="fill:#3d3b39;fill-opacity:1;fill-rule:nonzero;stroke:none;stroke-width:0.70250541"
     id="path5606" />
  <path
     inkscape:connector-curvature="0"
     d="M 27.971895,6.7873278 H 3.970723 c -2.198947,0 -3.99844295,2.028169 -3.99844295,4.5821602 v 16.000001 c 0,2.55399 1.79949595,4.582158 3.99844295,4.582158 h 24.001172 c 2.198945,0 4.000414,-2.028168 4.000414,-4.582158 V 11.369488 c 0,-2.5539912 -1.801469,-4.5821602 -4.000414,-4.5821602 z M 26.970641,27.369489 H 4.971976 c -0.549243,0 -1.001253,-0.525823 -1.001253,-1.126762 0,-0.676055 0.45201,-1.12676 1.001253,-1.12676 h 21.998665 c 0.551871,0 1.001254,0.450705 1.001254,1.12676 0,0.600939 -0.449383,1.126762 -1.001254,1.126762 z m 0,-6.835683 H 4.971976 c -0.549243,0 -1.001253,-0.525821 -1.001253,-1.12676 0,-0.676057 0.45201,-1.201877 1.001253,-1.201877 h 21.998665 c 0.551871,0 1.001254,0.52582 1.001254,1.201877 0,0.600939 -0.449383,1.12676 -1.001254,1.12676 z m 0,-6.910797 H 4.971976 c -0.549243,0 -1.001253,-0.450704 -1.001253,-1.126761 0,-0.600939 0.45201,-1.12676 1.001253,-1.12676 h 21.998665 c 0.551871,0 1.001254,0.525821 1.001254,1.12676 0,0.676057 -0.449383,1.126761 -1.001254,1.126761"
     style="fill:#3d3b39;fill-opacity:1;fill-rule:nonzero;stroke:none;stroke-width:0.70250541"
     id="path5608" />
</svg>
