<?xml version="1.0" encoding="UTF-8" standalone="no"?>
<svg
   xmlns:dc="http://purl.org/dc/elements/1.1/"
   xmlns:cc="http://creativecommons.org/ns#"
   xmlns:rdf="http://www.w3.org/1999/02/22-rdf-syntax-ns#"
   xmlns:svg="http://www.w3.org/2000/svg"
   xmlns="http://www.w3.org/2000/svg"
   xmlns:sodipodi="http://sodipodi.sourceforge.net/DTD/sodipodi-0.dtd"
   xmlns:inkscape="http://www.inkscape.org/namespaces/inkscape"
   id="SvgjsSvg1062"
   width="16"
   height="16"
   version="1.1"
   sodipodi:docname="attachment.svg"
   inkscape:version="0.92.5 (2060ec1f9f, 2020-04-08)">
  <metadata
     id="metadata12">
    <rdf:RDF>
      <cc:Work
         rdf:about="">
        <dc:format>image/svg+xml</dc:format>
        <dc:type
           rdf:resource="http://purl.org/dc/dcmitype/StillImage" />
        <dc:title></dc:title>
      </cc:Work>
    </rdf:RDF>
  </metadata>
  <sodipodi:namedview
     pagecolor="#ffffff"
     bordercolor="#666666"
     borderopacity="1"
     objecttolerance="10"
     gridtolerance="10"
     guidetolerance="10"
     inkscape:pageopacity="0"
     inkscape:pageshadow="2"
     inkscape:window-width="1864"
     inkscape:window-height="1016"
     id="namedview10"
     showgrid="false"
     inkscape:zoom="37.1875"
     inkscape:cx="0.53748779"
     inkscape:cy="6.071617"
     inkscape:window-x="56"
     inkscape:window-y="27"
     inkscape:window-maximized="1"
     inkscape:current-layer="SvgjsSvg1062"
     inkscape:document-rotation="0" />
  <defs
     id="SvgjsDefs1063" />
  <g
     id="SvgjsG1064"
     transform="matrix(0.71,0,0,0.71,41.852738,-230.33282)">
    <svg
       width="288"
       height="288"
       viewBox="0 0 8.467 8.467"
       version="1.1"
       id="svg6">
      <path
         d="m 1.9288571,295.06795 c 0.2047877,0.20531 0.3296711,0.48312 0.3307293,0.79216 -0.00106,0.30902 -0.1259424,0.58737 -0.3307293,0.7911 v 5.3e-4 c -0.2047877,0.20373 -0.4847172,0.32808 -0.7958674,0.32808 -0.31009189,0 -0.58896295,-0.12496 -0.7937507,-0.32861 -0.20425834,-0.20373 -0.32967097,-0.48154 -0.32967097,-0.7911 0,-0.30904 0.12541293,-0.58685 0.32967097,-0.79216 0.20478775,-0.20373 0.48365881,-0.32863 0.7937507,-0.32863 0.3111502,0 0.5905506,0.12592 0.7958674,0.32863 z m 0,0 z m -1.5896181,1.58379 v -5.1e-4 z m -0.32861267,-5.24933 v 1.61712 c 1.05515917,5.6e-4 2.05316827,0.41488 2.80088137,1.16259 0.7471839,0.74666 1.159405,1.74571 1.1609925,2.80511 h 5.293e-4 v 0.003 h 1.6229554 c -0.00106,-1.53989 -0.6265337,-2.93477 -1.6388304,-3.94759 -1.0117675,-1.0123 -2.406652,-1.63936 -3.94652817,-1.64042 z m 0.00211,-2.87868 v 1.61608 c 3.77349057,0.002 6.84001377,3.07393 6.84265947,6.8506 h 1.6208389 c -0.00106,-2.33363 -0.9498549,-4.44818 -2.4833811,-5.9833 -1.5329951,-1.53246 -3.6464883,-2.48232 -5.98011527,-2.48338"
         transform="translate(0,-288.533)"
         class="color00698c svgShape"
         id="path4"
         inkscape:connector-curvature="0"
         style="fill:#ffffff" />
    </svg>
  </g>
  <path
     inkscape:connector-curvature="0"
     d="m 3.3594221,15.445629 c -0.6179104,0 -1.2282084,-0.297868 -1.8021005,-0.860507 l -0.082741,-0.09929 C 0.88380932,13.923194 -1.5610238,11.871215 1.4835166,9.0580182 2.7338996,7.8996432 4.2748692,6.2448223 5.9879403,4.5238081 6.908352,3.6302046 7.8661625,2.6704082 8.8190085,1.7437083 10.539692,0.02269414 11.79901,0.38675484 13.750045,2.2732511 c 2.305166,2.1843642 2.726483,4.335632 1.729619,5.4940071 -1.323857,1.522436 -6.3323386,6.5199958 -6.5441556,6.7516708 -0.280658,0.264771 -0.7357338,0.264771 -1.0163916,0 -0.2803267,-0.297868 -0.2803267,-0.728121 0,-1.025989 C 7.9710778,13.45985 13.104664,8.2968012 14.395094,6.8074612 14.690976,6.4764974 14.736318,5.1857367 12.7598,3.2992404 11.620621,2.2070582 11.283368,1.2803583 9.8354005,2.7366011 8.8799062,3.6963975 7.9191168,4.6561938 6.9960575,5.5497974 5.2922534,7.2377152 3.7125609,8.8594402 2.5243992,10.050911 c -1.88517247,1.886497 -0.6606047,2.813197 -0.04137,3.408932 l 0.090353,0.09929 c 0.5275569,0.529543 0.9594654,0.661929 1.731274,-0.09929 0.2144648,-0.231675 0.6606047,-0.661928 1.2215891,-1.191471 1.5538772,-1.522435 4.4461745,-4.3356318 5.030326,-5.0637538 0.186333,-0.231674 0.4564,-0.7943137 0.197916,-1.0259887 C 10.399032,5.8807617 9.7447156,6.5095937 9.553418,6.7081723 7.5262622,8.8263432 4.878548,11.374769 4.8527329,11.407865 c -0.2856222,0.264772 -0.7406981,0.264772 -1.0150675,0 C 3.5623031,11.109997 3.5715701,10.646647 3.8571924,10.381875 3.8830074,10.348785 6.5088781,7.8334502 8.5138601,5.7152795 9.8132254,4.358326 11.012971,4.5238081 11.69939,5.1195438 12.537392,5.8476652 12.340799,7.2708122 11.678869,8.0982222 11.088098,8.8594402 8.8100714,11.0769 6.5267482,13.294361 5.9723831,13.823904 5.5315387,14.254157 5.3193905,14.485832 4.6793056,15.114665 4.0150604,15.445629 3.3594201,15.445629"
     style="fill:#3d3b39;fill-opacity:1;fill-rule:nonzero;stroke:none;stroke-width:0.33096427"
     id="path4012" />
</svg>
