<?xml version="1.0" encoding="UTF-8" standalone="no"?>
<svg
   xmlns:dc="http://purl.org/dc/elements/1.1/"
   xmlns:cc="http://creativecommons.org/ns#"
   xmlns:rdf="http://www.w3.org/1999/02/22-rdf-syntax-ns#"
   xmlns:svg="http://www.w3.org/2000/svg"
   xmlns="http://www.w3.org/2000/svg"
   xmlns:sodipodi="http://sodipodi.sourceforge.net/DTD/sodipodi-0.dtd"
   xmlns:inkscape="http://www.inkscape.org/namespaces/inkscape"
   width="16"
   height="16"
   viewBox="0 0 4.2333333 4.2333334"
   version="1.1"
   id="svg14997"
   sodipodi:docname="detail.svg"
   inkscape:version="0.92.5 (2060ec1f9f, 2020-04-08)"
   inkscape:export-filename="/home/paolo/Scaricati/detail.png"
   inkscape:export-xdpi="48.000034"
   inkscape:export-ydpi="48.000034">
  <defs
     id="defs14991">
    <clipPath
       clipPathUnits="userSpaceOnUse"
       id="clipPath15602">
      <g
         inkscape:label="Clip"
         id="use15604">
        <path
           style="fill:#00698c;fill-opacity:1;stroke-width:0.47037035"
           id="path15608"
           d="M 0.94195906,289.47494 H 7.5271441 v 6.58518 H 4.2345516 v 0.94074 h 3.2925925 c 0.5221111,0 0.9407408,-0.42334 0.9407408,-0.94074 v -6.58518 c 0,-0.51742 -0.4186297,-0.94074 -0.9407408,-0.94074 H 0.94195906 c -0.5174075,0 -0.9407408,0.42332 -0.9407408,0.94074 v 3.29259 h 0.9407408 z m 2.35185174,7.52592 v -0.94074 H 1.6051813 l 4.6237406,-4.62374 -0.6632222,-0.66321 -4.62374064,4.62373 v -1.68862 h -0.9407408 v 3.29258 z"
           inkscape:connector-curvature="0"
           clip-path="none" />
      </g>
    </clipPath>
  </defs>
  <sodipodi:namedview
     id="base"
     pagecolor="#ffffff"
     bordercolor="#666666"
     borderopacity="1.0"
     inkscape:pageopacity="0.0"
     inkscape:pageshadow="2"
     inkscape:zoom="22.4"
     inkscape:cx="16.409523"
     inkscape:cy="3.8293375"
     inkscape:document-units="mm"
     inkscape:current-layer="layer1"
     showgrid="false"
     units="px"
     inkscape:window-width="1864"
     inkscape:window-height="1016"
     inkscape:window-x="56"
     inkscape:window-y="27"
     inkscape:window-maximized="1"
     inkscape:document-rotation="0" />
  <metadata
     id="metadata14994">
    <rdf:RDF>
      <cc:Work
         rdf:about="">
        <dc:format>image/svg+xml</dc:format>
        <dc:type
           rdf:resource="http://purl.org/dc/dcmitype/StillImage" />
        <dc:title></dc:title>
      </cc:Work>
    </rdf:RDF>
  </metadata>
  <g
     inkscape:label="Livello 1"
     inkscape:groupmode="layer"
     id="layer1"
     transform="translate(0,-292.76665)">
    <path
       style="fill:#3d3b39;fill-opacity:1;stroke-width:0.23517875"
       id="path14960"
       d="M 0.47392499,293.23554 H 3.7663351 v 3.2926 H 1.5909927 v 0.47037 h 2.1753424 c 0.2610411,0 0.4703444,-0.21167 0.4703444,-0.47037 v -3.2926 c 0,-0.25871 -0.2093033,-0.47037 -0.4703444,-0.47037 H 0.47392499 c -0.2586895,0 -0.4703444,0.21166 -0.4703444,0.47037 v 2.44005 h 0.4703444 z m -0.4703444,3.76297 c -4.061e-4,-2.9e-4 -2.03e-4,-1.5e-4 0,0 z"
       inkscape:connector-curvature="0"
       clip-path="none"
       sodipodi:nodetypes="cccccssssssccccc" />
    <path
       inkscape:connector-curvature="0"
       d="m 1.4844825,293.87608 v 0.47037 h 0.8442681 l -2.31174231,2.31188 0.3315927,0.3316 2.31174231,-2.31187 v 0.84432 h 0.4703444 v -1.6463 z"
       id="path14960-9"
       style="fill:#3d3b39;fill-opacity:1;stroke-width:0.23517875"
       sodipodi:nodetypes="cccccccccc" />
  </g>
</svg>
