<?xml version="1.0" encoding="UTF-8" standalone="no"?>
<svg
   xmlns:dc="http://purl.org/dc/elements/1.1/"
   xmlns:cc="http://creativecommons.org/ns#"
   xmlns:rdf="http://www.w3.org/1999/02/22-rdf-syntax-ns#"
   xmlns:svg="http://www.w3.org/2000/svg"
   xmlns="http://www.w3.org/2000/svg"
   xmlns:sodipodi="http://sodipodi.sourceforge.net/DTD/sodipodi-0.dtd"
   xmlns:inkscape="http://www.inkscape.org/namespaces/inkscape"
   id="SvgjsSvg1062"
   width="16"
   height="16"
   version="1.1"
   sodipodi:docname="link.svg"
   inkscape:version="0.92.5 (2060ec1f9f, 2020-04-08)">
  <metadata
     id="metadata12">
    <rdf:RDF>
      <cc:Work
         rdf:about="">
        <dc:format>image/svg+xml</dc:format>
        <dc:type
           rdf:resource="http://purl.org/dc/dcmitype/StillImage" />
        <dc:title></dc:title>
      </cc:Work>
    </rdf:RDF>
  </metadata>
  <sodipodi:namedview
     pagecolor="#ffffff"
     bordercolor="#666666"
     borderopacity="1"
     objecttolerance="10"
     gridtolerance="10"
     guidetolerance="10"
     inkscape:pageopacity="0"
     inkscape:pageshadow="2"
     inkscape:window-width="1864"
     inkscape:window-height="1016"
     id="namedview10"
     showgrid="false"
     inkscape:zoom="37.1875"
     inkscape:cx="0.53748779"
     inkscape:cy="6.071617"
     inkscape:window-x="56"
     inkscape:window-y="27"
     inkscape:window-maximized="1"
     inkscape:current-layer="SvgjsSvg1062"
     inkscape:document-rotation="0" />
  <defs
     id="SvgjsDefs1063" />
  <g
     id="SvgjsG1064"
     transform="matrix(0.71,0,0,0.71,41.852738,-230.33282)">
    <svg
       width="288"
       height="288"
       viewBox="0 0 8.467 8.467"
       version="1.1"
       id="svg6">
      <path
         d="m 1.9288571,295.06795 c 0.2047877,0.20531 0.3296711,0.48312 0.3307293,0.79216 -0.00106,0.30902 -0.1259424,0.58737 -0.3307293,0.7911 v 5.3e-4 c -0.2047877,0.20373 -0.4847172,0.32808 -0.7958674,0.32808 -0.31009189,0 -0.58896295,-0.12496 -0.7937507,-0.32861 -0.20425834,-0.20373 -0.32967097,-0.48154 -0.32967097,-0.7911 0,-0.30904 0.12541293,-0.58685 0.32967097,-0.79216 0.20478775,-0.20373 0.48365881,-0.32863 0.7937507,-0.32863 0.3111502,0 0.5905506,0.12592 0.7958674,0.32863 z m 0,0 z m -1.5896181,1.58379 v -5.1e-4 z m -0.32861267,-5.24933 v 1.61712 c 1.05515917,5.6e-4 2.05316827,0.41488 2.80088137,1.16259 0.7471839,0.74666 1.159405,1.74571 1.1609925,2.80511 h 5.293e-4 v 0.003 h 1.6229554 c -0.00106,-1.53989 -0.6265337,-2.93477 -1.6388304,-3.94759 -1.0117675,-1.0123 -2.406652,-1.63936 -3.94652817,-1.64042 z m 0.00211,-2.87868 v 1.61608 c 3.77349057,0.002 6.84001377,3.07393 6.84265947,6.8506 h 1.6208389 c -0.00106,-2.33363 -0.9498549,-4.44818 -2.4833811,-5.9833 -1.5329951,-1.53246 -3.6464883,-2.48232 -5.98011527,-2.48338"
         transform="translate(0,-288.533)"
         class="color00698c svgShape"
         id="path4"
         inkscape:connector-curvature="0"
         style="fill:#ffffff" />
    </svg>
  </g>
  <path
     inkscape:connector-curvature="0"
     d="M 15.10166,1.7474382 14.347914,1.0112218 c -1.251568,-1.2620854 -3.277916,-1.2620854 -4.5259775,0 L 7.5817345,3.2198711 C 8.4963959,2.8692919 9.5414731,2.9394077 10.414415,3.4302187 l 0.915012,-0.9115061 c 0.41719,-0.4206951 1.093807,-0.4206951 1.510996,0 l 0.753746,0.7362165 c 0.41719,0.4206951 0.41719,1.0867957 0,1.5074911 l -4.528082,4.522472 c -0.4161376,0.420695 -1.0927555,0.420695 -1.5092436,0 l -0.6257841,-0.631042 -1.5541179,1.4724328 0.6710087,0.6661 c 1.2501658,1.262085 3.2761637,1.262085 4.5277309,0 L 15.10166,6.2699112 c 1.251568,-1.227028 1.251568,-3.2603876 0,-4.522473"
     style="fill:#3d3b39;fill-opacity:1;fill-rule:nonzero;stroke:none;stroke-width:0.35057926"
     id="path4048" />
  <path
     inkscape:connector-curvature="0"
     d="M 5.6686234,12.650453 4.7522092,13.56196 c -0.4175399,0.420695 -1.0941579,0.420695 -1.5102955,0 L 2.4871165,12.825743 c -0.4161376,-0.420695 -0.4161376,-1.121853 0,-1.542549 L 7.0144972,6.7607222 c 0.4178905,-0.420696 1.0931062,-0.420696 1.5092438,0 l 0.6285886,0.631043 1.5530664,-1.472434 -0.669607,-0.6661 c -1.2519182,-1.2270277 -3.2800193,-1.2270277 -4.5301849,0 l -4.5273807,4.522473 c -1.2505164,1.2620848 -1.2505164,3.2954438 0,4.5575298 l 0.7544465,0.736217 c 1.2501657,1.262085 3.2772151,1.262085 4.5273807,0 L 8.5006028,12.825743 C 7.5855909,13.21138 6.5422669,13.141265 5.6686234,12.650453"
     style="fill:#3d3b39;fill-opacity:1;fill-rule:nonzero;stroke:none;stroke-width:0.35057926"
     id="path4050" />
</svg>
